<svg width="10" height="10" viewBox="0 0 10 10" fill="none" xmlns="http://www.w3.org/2000/svg">
<path d="M6.16016 4.75L9.11328 1.82422C9.27734 1.66016 9.27734 1.35938 9.11328 1.19531L8.42969 0.511719C8.26562 0.347656 7.96484 0.347656 7.80078 0.511719L4.875 3.46484L1.92188 0.511719C1.75781 0.347656 1.45703 0.347656 1.29297 0.511719L0.609375 1.19531C0.445312 1.35938 0.445312 1.66016 0.609375 1.82422L3.5625 4.75L0.609375 7.70312C0.445312 7.86719 0.445312 8.16797 0.609375 8.33203L1.29297 9.01562C1.45703 9.17969 1.75781 9.17969 1.92188 9.01562L4.875 6.0625L7.80078 9.01562C7.96484 9.17969 8.26562 9.17969 8.42969 9.01562L9.11328 8.33203C9.27734 8.16797 9.27734 7.86719 9.11328 7.70312L6.16016 4.75Z" fill="#808B9A"/>
</svg>
