<svg width="91" height="14" viewBox="0 0 91 14" fill="none" xmlns="http://www.w3.org/2000/svg">
<path d="M10.0625 4.875H6.125V0.9375C6.125 0.71875 5.90625 0.5 5.6875 0.5H4.8125C4.56641 0.5 4.375 0.71875 4.375 0.9375V4.875H0.4375C0.191406 4.875 0 5.09375 0 5.3125V6.1875C0 6.43359 0.191406 6.625 0.4375 6.625H4.375V10.5625C4.375 10.8086 4.56641 11 4.8125 11H5.6875C5.90625 11 6.125 10.8086 6.125 10.5625V6.625H10.0625C10.2812 6.625 10.5 6.43359 10.5 6.1875V5.3125C10.5 5.09375 10.2812 4.875 10.0625 4.875ZM20.624 8.40234H16.4541L15.5176 11H14.1641L17.9648 1.04688H19.1133L22.9209 11H21.5742L20.624 8.40234ZM16.8506 7.32227H20.2344L18.5391 2.66699L16.8506 7.32227ZM23.7549 7.24023C23.7549 6.10547 24.0238 5.19401 24.5615 4.50586C25.0993 3.81315 25.8034 3.4668 26.6738 3.4668C27.5397 3.4668 28.2256 3.76302 28.7314 4.35547V0.5H29.9961V11H28.834L28.7725 10.207C28.2666 10.8268 27.5625 11.1367 26.6602 11.1367C25.8034 11.1367 25.1038 10.7858 24.5615 10.084C24.0238 9.38216 23.7549 8.46615 23.7549 7.33594V7.24023ZM25.0195 7.38379C25.0195 8.22233 25.1927 8.87858 25.5391 9.35254C25.8854 9.8265 26.3639 10.0635 26.9746 10.0635C27.7767 10.0635 28.3623 9.70345 28.7314 8.9834V5.58594C28.3532 4.88867 27.7721 4.54004 26.9883 4.54004C26.3685 4.54004 25.8854 4.7793 25.5391 5.25781C25.1927 5.73633 25.0195 6.44499 25.0195 7.38379ZM31.6572 7.24023C31.6572 6.10547 31.9261 5.19401 32.4639 4.50586C33.0016 3.81315 33.7057 3.4668 34.5762 3.4668C35.4421 3.4668 36.1279 3.76302 36.6338 4.35547V0.5H37.8984V11H36.7363L36.6748 10.207C36.1689 10.8268 35.4648 11.1367 34.5625 11.1367C33.7057 11.1367 33.0062 10.7858 32.4639 10.084C31.9261 9.38216 31.6572 8.46615 31.6572 7.33594V7.24023ZM32.9219 7.38379C32.9219 8.22233 33.0951 8.87858 33.4414 9.35254C33.7878 9.8265 34.2663 10.0635 34.877 10.0635C35.679 10.0635 36.2646 9.70345 36.6338 8.9834V5.58594C36.2555 4.88867 35.6745 4.54004 34.8906 4.54004C34.2708 4.54004 33.7878 4.7793 33.4414 5.25781C33.0951 5.73633 32.9219 6.44499 32.9219 7.38379ZM44.5361 3.60352L44.5771 4.5332C45.1423 3.82227 45.8805 3.4668 46.792 3.4668C48.3551 3.4668 49.1436 4.34863 49.1572 6.1123V11H47.8926V6.10547C47.888 5.57227 47.765 5.17806 47.5234 4.92285C47.2865 4.66764 46.915 4.54004 46.4092 4.54004C45.999 4.54004 45.639 4.64941 45.3291 4.86816C45.0192 5.08691 44.7777 5.37402 44.6045 5.72949V11H43.3398V3.60352H44.5361ZM54.1338 11.1367C53.1312 11.1367 52.3154 10.8086 51.6865 10.1523C51.0576 9.49154 50.7432 8.6097 50.7432 7.50684V7.27441C50.7432 6.54069 50.8822 5.88672 51.1602 5.3125C51.4427 4.73372 51.8346 4.28255 52.3359 3.95898C52.8418 3.63086 53.3887 3.4668 53.9766 3.4668C54.9382 3.4668 55.6855 3.78353 56.2188 4.41699C56.752 5.05046 57.0186 5.95736 57.0186 7.1377V7.66406H52.0078C52.026 8.39323 52.238 8.9834 52.6436 9.43457C53.0537 9.88118 53.5732 10.1045 54.2021 10.1045C54.6488 10.1045 55.027 10.0133 55.3369 9.83105C55.6468 9.64876 55.918 9.40723 56.1504 9.10645L56.9229 9.70801C56.3031 10.6605 55.3734 11.1367 54.1338 11.1367ZM53.9766 4.50586C53.4661 4.50586 53.0378 4.69271 52.6914 5.06641C52.3451 5.43555 52.1309 5.95508 52.0488 6.625H55.7539V6.5293C55.7174 5.88672 55.5443 5.38997 55.2344 5.03906C54.9245 4.68359 54.5052 4.50586 53.9766 4.50586ZM65.0371 9.25684L66.459 3.60352H67.7236L65.5703 11H64.5449L62.7471 5.39453L60.9971 11H59.9717L57.8252 3.60352H59.083L60.5391 9.14062L62.2617 3.60352H63.2803L65.0371 9.25684ZM74.2041 1.8125V3.60352H75.585V4.58105H74.2041V9.16797C74.2041 9.46419 74.2656 9.6875 74.3887 9.83789C74.5117 9.98372 74.7214 10.0566 75.0176 10.0566C75.1634 10.0566 75.3639 10.0293 75.6191 9.97461V11C75.2865 11.0911 74.9629 11.1367 74.6484 11.1367C74.0833 11.1367 73.6572 10.9658 73.3701 10.624C73.083 10.2822 72.9395 9.79688 72.9395 9.16797V4.58105H71.5928V3.60352H72.9395V1.8125H74.2041ZM81.6348 11C81.5618 10.8542 81.5026 10.5944 81.457 10.2207C80.8691 10.8314 80.1673 11.1367 79.3516 11.1367C78.6224 11.1367 78.0231 10.9316 77.5537 10.5215C77.0889 10.1068 76.8564 9.58268 76.8564 8.94922C76.8564 8.17904 77.1481 7.58203 77.7314 7.1582C78.3193 6.72982 79.1442 6.51562 80.2061 6.51562H81.4365V5.93457C81.4365 5.49251 81.3044 5.1416 81.04 4.88184C80.7757 4.61751 80.3861 4.48535 79.8711 4.48535C79.4199 4.48535 79.0417 4.59928 78.7363 4.82715C78.431 5.05501 78.2783 5.33073 78.2783 5.6543H77.0068C77.0068 5.28516 77.1367 4.92969 77.3965 4.58789C77.6608 4.24154 78.0163 3.9681 78.4629 3.76758C78.9141 3.56706 79.4085 3.4668 79.9463 3.4668C80.7985 3.4668 81.4661 3.68099 81.9492 4.10938C82.4323 4.5332 82.6829 5.11882 82.7012 5.86621V9.27051C82.7012 9.94954 82.7878 10.4896 82.9609 10.8906V11H81.6348ZM79.5361 10.0361C79.9326 10.0361 80.3086 9.93359 80.6641 9.72852C81.0195 9.52344 81.277 9.25684 81.4365 8.92871V7.41113H80.4453C78.8958 7.41113 78.1211 7.86458 78.1211 8.77148C78.1211 9.16797 78.2533 9.47786 78.5176 9.70117C78.7819 9.92448 79.1214 10.0361 79.5361 10.0361ZM84.3828 7.24023C84.3828 6.08724 84.6494 5.17122 85.1826 4.49219C85.7158 3.80859 86.4222 3.4668 87.3018 3.4668C88.2041 3.4668 88.9082 3.78581 89.4141 4.42383L89.4756 3.60352H90.6309V10.8223C90.6309 11.7793 90.346 12.5335 89.7764 13.085C89.2113 13.6364 88.4502 13.9121 87.4932 13.9121C86.96 13.9121 86.4382 13.7982 85.9277 13.5703C85.4173 13.3424 85.0277 13.0303 84.7588 12.6338L85.415 11.875C85.9574 12.5449 86.6204 12.8799 87.4043 12.8799C88.0195 12.8799 88.498 12.7067 88.8398 12.3604C89.1862 12.014 89.3594 11.5264 89.3594 10.8975V10.2617C88.8535 10.8451 88.1631 11.1367 87.2881 11.1367C86.4222 11.1367 85.7204 10.7881 85.1826 10.0908C84.6494 9.39355 84.3828 8.44336 84.3828 7.24023ZM85.6543 7.38379C85.6543 8.21777 85.8252 8.87402 86.167 9.35254C86.5088 9.8265 86.9873 10.0635 87.6025 10.0635C88.4001 10.0635 88.9857 9.70117 89.3594 8.97656V5.59961C88.972 4.89323 88.391 4.54004 87.6162 4.54004C87.001 4.54004 86.5202 4.7793 86.1738 5.25781C85.8275 5.73633 85.6543 6.44499 85.6543 7.38379Z" fill="#233145"/>
</svg>
