<svg width="96" height="14" viewBox="0 0 96 14" fill="none" xmlns="http://www.w3.org/2000/svg">
<path d="M10.0625 4.875H6.125V0.9375C6.125 0.71875 5.90625 0.5 5.6875 0.5H4.8125C4.56641 0.5 4.375 0.71875 4.375 0.9375V4.875H0.4375C0.191406 4.875 0 5.09375 0 5.3125V6.1875C0 6.43359 0.191406 6.625 0.4375 6.625H4.375V10.5625C4.375 10.8086 4.56641 11 4.8125 11H5.6875C5.90625 11 6.125 10.8086 6.125 10.5625V6.625H10.0625C10.2812 6.625 10.5 6.43359 10.5 6.1875V5.3125C10.5 5.09375 10.2812 4.875 10.0625 4.875Z" fill="#276EF1"/>
<path d="M25.6514 8.40234H21.4814L20.5449 11H19.1914L22.9922 1.04688H24.1406L27.9482 11H26.6016L25.6514 8.40234ZM21.8779 7.32227H25.2617L23.5664 2.66699L21.8779 7.32227ZM28.7822 7.24023C28.7822 6.10547 29.0511 5.19401 29.5889 4.50586C30.1266 3.81315 30.8307 3.4668 31.7012 3.4668C32.5671 3.4668 33.2529 3.76302 33.7588 4.35547V0.5H35.0234V11H33.8613L33.7998 10.207C33.2939 10.8268 32.5898 11.1367 31.6875 11.1367C30.8307 11.1367 30.1312 10.7858 29.5889 10.084C29.0511 9.38216 28.7822 8.46615 28.7822 7.33594V7.24023ZM30.0469 7.38379C30.0469 8.22233 30.2201 8.87858 30.5664 9.35254C30.9128 9.8265 31.3913 10.0635 32.002 10.0635C32.804 10.0635 33.3896 9.70345 33.7588 8.9834V5.58594C33.3805 4.88867 32.7995 4.54004 32.0156 4.54004C31.3958 4.54004 30.9128 4.7793 30.5664 5.25781C30.2201 5.73633 30.0469 6.44499 30.0469 7.38379ZM36.6846 7.24023C36.6846 6.10547 36.9535 5.19401 37.4912 4.50586C38.029 3.81315 38.7331 3.4668 39.6035 3.4668C40.4694 3.4668 41.1553 3.76302 41.6611 4.35547V0.5H42.9258V11H41.7637L41.7021 10.207C41.1963 10.8268 40.4922 11.1367 39.5898 11.1367C38.7331 11.1367 38.0335 10.7858 37.4912 10.084C36.9535 9.38216 36.6846 8.46615 36.6846 7.33594V7.24023ZM37.9492 7.38379C37.9492 8.22233 38.1224 8.87858 38.4688 9.35254C38.8151 9.8265 39.2936 10.0635 39.9043 10.0635C40.7064 10.0635 41.292 9.70345 41.6611 8.9834V5.58594C41.2829 4.88867 40.7018 4.54004 39.918 4.54004C39.2982 4.54004 38.8151 4.7793 38.4688 5.25781C38.1224 5.73633 37.9492 6.44499 37.9492 7.38379ZM49.5635 3.60352L49.6045 4.5332C50.1696 3.82227 50.9079 3.4668 51.8193 3.4668C53.3825 3.4668 54.1709 4.34863 54.1846 6.1123V11H52.9199V6.10547C52.9154 5.57227 52.7923 5.17806 52.5508 4.92285C52.3138 4.66764 51.9424 4.54004 51.4365 4.54004C51.0264 4.54004 50.6663 4.64941 50.3564 4.86816C50.0465 5.08691 49.805 5.37402 49.6318 5.72949V11H48.3672V3.60352H49.5635ZM59.1611 11.1367C58.1585 11.1367 57.3428 10.8086 56.7139 10.1523C56.085 9.49154 55.7705 8.6097 55.7705 7.50684V7.27441C55.7705 6.54069 55.9095 5.88672 56.1875 5.3125C56.4701 4.73372 56.862 4.28255 57.3633 3.95898C57.8691 3.63086 58.416 3.4668 59.0039 3.4668C59.9655 3.4668 60.7129 3.78353 61.2461 4.41699C61.7793 5.05046 62.0459 5.95736 62.0459 7.1377V7.66406H57.0352C57.0534 8.39323 57.2653 8.9834 57.6709 9.43457C58.0811 9.88118 58.6006 10.1045 59.2295 10.1045C59.6761 10.1045 60.0544 10.0133 60.3643 9.83105C60.6742 9.64876 60.9453 9.40723 61.1777 9.10645L61.9502 9.70801C61.3304 10.6605 60.4007 11.1367 59.1611 11.1367ZM59.0039 4.50586C58.4935 4.50586 58.0651 4.69271 57.7188 5.06641C57.3724 5.43555 57.1582 5.95508 57.0762 6.625H60.7812V6.5293C60.7448 5.88672 60.5716 5.38997 60.2617 5.03906C59.9518 4.68359 59.5326 4.50586 59.0039 4.50586ZM70.0645 9.25684L71.4863 3.60352H72.751L70.5977 11H69.5723L67.7744 5.39453L66.0244 11H64.999L62.8525 3.60352H64.1104L65.5664 9.14062L67.2891 3.60352H68.3076L70.0645 9.25684ZM79.2314 1.8125V3.60352H80.6123V4.58105H79.2314V9.16797C79.2314 9.46419 79.293 9.6875 79.416 9.83789C79.5391 9.98372 79.7487 10.0566 80.0449 10.0566C80.1908 10.0566 80.3913 10.0293 80.6465 9.97461V11C80.3138 11.0911 79.9902 11.1367 79.6758 11.1367C79.1107 11.1367 78.6846 10.9658 78.3975 10.624C78.1104 10.2822 77.9668 9.79688 77.9668 9.16797V4.58105H76.6201V3.60352H77.9668V1.8125H79.2314ZM86.6621 11C86.5892 10.8542 86.5299 10.5944 86.4844 10.2207C85.8965 10.8314 85.1947 11.1367 84.3789 11.1367C83.6497 11.1367 83.0505 10.9316 82.5811 10.5215C82.1162 10.1068 81.8838 9.58268 81.8838 8.94922C81.8838 8.17904 82.1755 7.58203 82.7588 7.1582C83.3467 6.72982 84.1715 6.51562 85.2334 6.51562H86.4639V5.93457C86.4639 5.49251 86.3317 5.1416 86.0674 4.88184C85.8031 4.61751 85.4134 4.48535 84.8984 4.48535C84.4473 4.48535 84.069 4.59928 83.7637 4.82715C83.4583 5.05501 83.3057 5.33073 83.3057 5.6543H82.0342C82.0342 5.28516 82.1641 4.92969 82.4238 4.58789C82.6882 4.24154 83.0436 3.9681 83.4902 3.76758C83.9414 3.56706 84.4359 3.4668 84.9736 3.4668C85.8258 3.4668 86.4935 3.68099 86.9766 4.10938C87.4596 4.5332 87.7103 5.11882 87.7285 5.86621V9.27051C87.7285 9.94954 87.8151 10.4896 87.9883 10.8906V11H86.6621ZM84.5635 10.0361C84.96 10.0361 85.3359 9.93359 85.6914 9.72852C86.0469 9.52344 86.3044 9.25684 86.4639 8.92871V7.41113H85.4727C83.9232 7.41113 83.1484 7.86458 83.1484 8.77148C83.1484 9.16797 83.2806 9.47786 83.5449 9.70117C83.8092 9.92448 84.1488 10.0361 84.5635 10.0361ZM89.4102 7.24023C89.4102 6.08724 89.6768 5.17122 90.21 4.49219C90.7432 3.80859 91.4495 3.4668 92.3291 3.4668C93.2314 3.4668 93.9355 3.78581 94.4414 4.42383L94.5029 3.60352H95.6582V10.8223C95.6582 11.7793 95.3734 12.5335 94.8037 13.085C94.2386 13.6364 93.4775 13.9121 92.5205 13.9121C91.9873 13.9121 91.4655 13.7982 90.9551 13.5703C90.4447 13.3424 90.055 13.0303 89.7861 12.6338L90.4424 11.875C90.9847 12.5449 91.6478 12.8799 92.4316 12.8799C93.0469 12.8799 93.5254 12.7067 93.8672 12.3604C94.2135 12.014 94.3867 11.5264 94.3867 10.8975V10.2617C93.8809 10.8451 93.1904 11.1367 92.3154 11.1367C91.4495 11.1367 90.7477 10.7881 90.21 10.0908C89.6768 9.39355 89.4102 8.44336 89.4102 7.24023ZM90.6816 7.38379C90.6816 8.21777 90.8525 8.87402 91.1943 9.35254C91.5361 9.8265 92.0146 10.0635 92.6299 10.0635C93.4274 10.0635 94.013 9.70117 94.3867 8.97656V5.59961C93.9993 4.89323 93.4183 4.54004 92.6436 4.54004C92.0283 4.54004 91.5475 4.7793 91.2012 5.25781C90.8548 5.73633 90.6816 6.44499 90.6816 7.38379Z" fill="#276EF1"/>
</svg>
