<svg width="14" height="13" viewBox="0 0 14 13" fill="none" xmlns="http://www.w3.org/2000/svg">
<path d="M7.26172 12.7109L7.80859 12.1914C7.94531 12.0547 7.94531 11.8359 7.80859 11.7266L3.57031 7.46094H12.9219C13.0859 7.46094 13.25 7.32422 13.25 7.13281V6.36719C13.25 6.20312 13.0859 6.03906 12.9219 6.03906H3.57031L7.80859 1.80078C7.94531 1.69141 7.94531 1.47266 7.80859 1.33594L7.26172 0.816406C7.15234 0.679688 6.93359 0.679688 6.79688 0.816406L1.08203 6.53125C0.945312 6.66797 0.945312 6.85938 1.08203 6.99609L6.79688 12.7109C6.93359 12.8477 7.15234 12.8477 7.26172 12.7109Z" fill="#233145"/>
</svg>
