<svg width="14" height="13" viewBox="0 0 14 13" fill="none" xmlns="http://www.w3.org/2000/svg">
<path d="M7 6.09375C7 6.47656 7.27344 6.75 7.65625 6.75H10.2539C10.8281 6.75 11.1289 6.06641 10.6914 5.65625L9.95312 4.89062L13.0156 1.82812C13.1523 1.69141 13.1523 1.47266 13.0156 1.36328L12.3867 0.734375C12.2773 0.597656 12.0586 0.597656 11.9219 0.734375L8.85938 3.79688L8.09375 3.05859C7.68359 2.62109 7 2.92188 7 3.49609V6.09375ZM2.05078 12.793L5.11328 9.73047L5.87891 10.4688C6.28906 10.9062 7 10.6055 7 10.0312V7.40625C7 7.05078 6.69922 6.75 6.34375 6.75H3.71875C3.14453 6.75 2.84375 7.46094 3.28125 7.87109L4.01953 8.63672L0.957031 11.6992C0.820312 11.8359 0.820312 12.0547 0.957031 12.1641L1.58594 12.793C1.69531 12.9297 1.91406 12.9297 2.05078 12.793Z" fill="#808B9A"/>
</svg>