<svg width="21" height="13" viewBox="0 0 21 13" fill="none" xmlns="http://www.w3.org/2000/svg">
<path d="M9.625 7.625H8.3125V5.875H9.625C11.0742 5.875 12.25 4.72656 12.25 3.25C12.25 1.80078 11.0742 0.625 9.625 0.625C8.14844 0.625 7 1.80078 7 3.25V4.5625H5.25V3.25C5.25 1.80078 4.07422 0.625 2.625 0.625C1.14844 0.625 0 1.80078 0 3.25C0 4.72656 1.14844 5.875 2.625 5.875H3.9375V7.625H2.625C1.14844 7.625 0 8.80078 0 10.25C0 11.7266 1.14844 12.875 2.625 12.875C4.07422 12.875 5.25 11.7266 5.25 10.25V8.9375H7V10.25C7 11.7266 8.14844 12.875 9.625 12.875C11.0742 12.875 12.25 11.7266 12.25 10.25C12.25 8.80078 11.0742 7.625 9.625 7.625ZM8.3125 3.25C8.3125 2.53906 8.88672 1.9375 9.625 1.9375C10.3359 1.9375 10.9375 2.53906 10.9375 3.25C10.9375 3.98828 10.3359 4.5625 9.625 4.5625H8.3125V3.25ZM3.9375 10.25C3.9375 10.9883 3.33594 11.5625 2.625 11.5625C1.88672 11.5625 1.3125 10.9883 1.3125 10.25C1.3125 9.53906 1.88672 8.9375 2.625 8.9375H3.9375V10.25ZM3.9375 4.5625H2.625C1.88672 4.5625 1.3125 3.98828 1.3125 3.25C1.3125 2.53906 1.88672 1.9375 2.625 1.9375C3.33594 1.9375 3.9375 2.53906 3.9375 3.25V4.5625ZM7 7.625H5.25V5.875H7V7.625ZM9.625 11.5625C8.88672 11.5625 8.3125 10.9883 8.3125 10.25V8.9375H9.625C10.3359 8.9375 10.9375 9.53906 10.9375 10.25C10.9375 10.9883 10.3359 11.5625 9.625 11.5625ZM19.4141 8.83496H20.7266C20.6582 9.46387 20.4782 10.0267 20.1865 10.5234C19.8949 11.0202 19.4824 11.4144 18.9492 11.7061C18.416 11.9932 17.7507 12.1367 16.9531 12.1367C16.3698 12.1367 15.8389 12.0273 15.3604 11.8086C14.8864 11.5898 14.4785 11.2799 14.1367 10.8789C13.7949 10.4733 13.5306 9.98796 13.3438 9.42285C13.1615 8.85319 13.0703 8.21973 13.0703 7.52246V6.53125C13.0703 5.83398 13.1615 5.2028 13.3438 4.6377C13.5306 4.06803 13.7972 3.5804 14.1436 3.1748C14.4945 2.76921 14.916 2.45703 15.4082 2.23828C15.9004 2.01953 16.4541 1.91016 17.0693 1.91016C17.8213 1.91016 18.457 2.05143 18.9766 2.33398C19.4961 2.61654 19.8994 3.00846 20.1865 3.50977C20.4782 4.00651 20.6582 4.58301 20.7266 5.23926H19.4141C19.3503 4.77441 19.2318 4.37565 19.0586 4.04297C18.8854 3.70573 18.6393 3.44596 18.3203 3.26367C18.0013 3.08138 17.5843 2.99023 17.0693 2.99023C16.6273 2.99023 16.2376 3.07454 15.9004 3.24316C15.5677 3.41178 15.2874 3.65104 15.0596 3.96094C14.8363 4.27083 14.6676 4.64225 14.5537 5.0752C14.4398 5.50814 14.3828 5.98893 14.3828 6.51758V7.52246C14.3828 8.01009 14.4329 8.4681 14.5332 8.89648C14.638 9.32487 14.7952 9.70085 15.0049 10.0244C15.2145 10.348 15.4811 10.6032 15.8047 10.79C16.1283 10.9723 16.5111 11.0635 16.9531 11.0635C17.5137 11.0635 17.9603 10.9746 18.293 10.7969C18.6257 10.6191 18.8763 10.3639 19.0449 10.0312C19.2181 9.69857 19.3411 9.2998 19.4141 8.83496Z" fill="#808B9A"/>
</svg>
