<svg width="21" height="13" viewBox="0 0 21 13" fill="none" xmlns="http://www.w3.org/2000/svg">
<path d="M9.625 7.625H8.3125V5.875H9.625C11.0742 5.875 12.25 4.72656 12.25 3.25C12.25 1.80078 11.0742 0.625 9.625 0.625C8.14844 0.625 7 1.80078 7 3.25V4.5625H5.25V3.25C5.25 1.80078 4.07422 0.625 2.625 0.625C1.14844 0.625 0 1.80078 0 3.25C0 4.72656 1.14844 5.875 2.625 5.875H3.9375V7.625H2.625C1.14844 7.625 0 8.80078 0 10.25C0 11.7266 1.14844 12.875 2.625 12.875C4.07422 12.875 5.25 11.7266 5.25 10.25V8.9375H7V10.25C7 11.7266 8.14844 12.875 9.625 12.875C11.0742 12.875 12.25 11.7266 12.25 10.25C12.25 8.80078 11.0742 7.625 9.625 7.625ZM8.3125 3.25C8.3125 2.53906 8.88672 1.9375 9.625 1.9375C10.3359 1.9375 10.9375 2.53906 10.9375 3.25C10.9375 3.98828 10.3359 4.5625 9.625 4.5625H8.3125V3.25ZM3.9375 10.25C3.9375 10.9883 3.33594 11.5625 2.625 11.5625C1.88672 11.5625 1.3125 10.9883 1.3125 10.25C1.3125 9.53906 1.88672 8.9375 2.625 8.9375H3.9375V10.25ZM3.9375 4.5625H2.625C1.88672 4.5625 1.3125 3.98828 1.3125 3.25C1.3125 2.53906 1.88672 1.9375 2.625 1.9375C3.33594 1.9375 3.9375 2.53906 3.9375 3.25V4.5625ZM7 7.625H5.25V5.875H7V7.625ZM9.625 11.5625C8.88672 11.5625 8.3125 10.9883 8.3125 10.25V8.9375H9.625C10.3359 8.9375 10.9375 9.53906 10.9375 10.25C10.9375 10.9883 10.3359 11.5625 9.625 11.5625ZM14.2598 2.04688L16.6523 5.86133L19.0449 2.04688H20.583L17.4385 6.97559L20.6582 12H19.1064L16.6523 8.11035L14.1982 12H12.6465L15.8662 6.97559L12.7217 2.04688H14.2598Z" fill="#808B9A"/>
</svg>
