<svg width="14" height="14" viewBox="0 0 14 14" fill="none" xmlns="http://www.w3.org/2000/svg">
<path d="M8.21875 7L13.9062 1.3125C14 1.21875 14 1.0625 13.9062 0.96875C13.3125 0.375 12.375 0.375 11.7812 0.96875L6.96875 5.78125L5.625 4.4375C5.84375 4 6 3.53125 6 3C6 1.34375 4.65625 0 3 0C1.3125 0 0 1.34375 0 3C0 4.6875 1.3125 6 3 6C3.5 6 3.96875 5.875 4.40625 5.65625L5.75 7L4.40625 8.375C3.96875 8.15625 3.5 8 3 8C1.3125 8 0 9.34375 0 11C0 12.6875 1.3125 14 3 14C4.65625 14 6 12.6875 6 11C6 10.5 5.84375 10.0312 5.625 9.59375L6.96875 8.25L11.7812 13.0625C12.375 13.6562 13.3125 13.6562 13.9062 13.0625C14 12.9688 14 12.8125 13.9062 12.7188L8.21875 7ZM3 4.5C2.15625 4.5 1.5 3.84375 1.5 3C1.5 2.1875 2.15625 1.5 3 1.5C3.8125 1.5 4.5 2.1875 4.5 3C4.5 3.84375 3.8125 4.5 3 4.5ZM3 12.5C2.15625 12.5 1.5 11.8438 1.5 11C1.5 10.1875 2.15625 9.5 3 9.5C3.8125 9.5 4.5 10.1875 4.5 11C4.5 11.8438 3.8125 12.5 3 12.5Z" fill="#808B9A"/>
</svg>
