<svg width="13" height="15" viewBox="0 0 13 15" fill="none" xmlns="http://www.w3.org/2000/svg">
<path d="M7.82812 12.125H8.48438C8.64844 12.125 8.8125 11.9883 8.8125 11.7969V5.89062C8.8125 5.72656 8.64844 5.5625 8.48438 5.5625H7.82812C7.63672 5.5625 7.5 5.72656 7.5 5.89062V11.7969C7.5 11.9883 7.63672 12.125 7.82812 12.125ZM12.3125 2.9375H10.043L9.11328 1.40625C8.89453 1.02344 8.45703 0.75 7.99219 0.75H5.23047C4.76562 0.75 4.32812 1.02344 4.10938 1.40625L3.17969 2.9375H0.9375C0.691406 2.9375 0.5 3.15625 0.5 3.375V3.8125C0.5 4.05859 0.691406 4.25 0.9375 4.25H1.375V13.4375C1.375 14.1758 1.94922 14.75 2.6875 14.75H10.5625C11.2734 14.75 11.875 14.1758 11.875 13.4375V4.25H12.3125C12.5312 4.25 12.75 4.05859 12.75 3.8125V3.375C12.75 3.15625 12.5312 2.9375 12.3125 2.9375ZM5.17578 2.14453C5.20312 2.11719 5.25781 2.0625 5.3125 2.0625C5.3125 2.0625 5.3125 2.0625 5.33984 2.0625H7.91016C7.96484 2.0625 8.01953 2.11719 8.04688 2.14453L8.51172 2.9375H4.71094L5.17578 2.14453ZM10.5625 13.4375H2.6875V4.25H10.5625V13.4375ZM4.76562 12.125H5.42188C5.58594 12.125 5.75 11.9883 5.75 11.7969V5.89062C5.75 5.72656 5.58594 5.5625 5.42188 5.5625H4.76562C4.57422 5.5625 4.4375 5.72656 4.4375 5.89062V11.7969C4.4375 11.9883 4.57422 12.125 4.76562 12.125Z" fill="#233145"/>
</svg>
