<svg width="38" height="12" viewBox="0 0 38 12" fill="none" xmlns="http://www.w3.org/2000/svg">
<path d="M2.84863 11H0.770508L0.78418 9.92676H2.84863C3.55957 9.92676 4.15202 9.77865 4.62598 9.48242C5.09993 9.18164 5.4554 8.76237 5.69238 8.22461C5.93392 7.68229 6.05469 7.04883 6.05469 6.32422V5.71582C6.05469 5.14616 5.98633 4.6403 5.84961 4.19824C5.71289 3.75163 5.51237 3.37565 5.24805 3.07031C4.98372 2.76042 4.66016 2.52572 4.27734 2.36621C3.89909 2.20671 3.46387 2.12695 2.97168 2.12695H0.729492V1.04688H2.97168C3.62337 1.04688 4.2181 1.15625 4.75586 1.375C5.29362 1.58919 5.75618 1.90137 6.14355 2.31152C6.53548 2.71712 6.83626 3.20931 7.0459 3.78809C7.25553 4.3623 7.36035 5.00944 7.36035 5.72949V6.32422C7.36035 7.04427 7.25553 7.69368 7.0459 8.27246C6.83626 8.84668 6.5332 9.33659 6.13672 9.74219C5.74479 10.1478 5.27083 10.46 4.71484 10.6787C4.16341 10.8929 3.54134 11 2.84863 11ZM1.47461 1.04688V11H0.155273V1.04688H1.47461ZM12.2207 11.1367C11.7057 11.1367 11.2386 11.0501 10.8193 10.877C10.4046 10.6992 10.0469 10.4508 9.74609 10.1318C9.44987 9.81283 9.22201 9.43457 9.0625 8.99707C8.90299 8.55957 8.82324 8.08105 8.82324 7.56152V7.27441C8.82324 6.67285 8.91211 6.13737 9.08984 5.66797C9.26758 5.19401 9.50911 4.79297 9.81445 4.46484C10.1198 4.13672 10.4661 3.88835 10.8535 3.71973C11.2409 3.55111 11.6419 3.4668 12.0566 3.4668C12.5853 3.4668 13.041 3.55794 13.4238 3.74023C13.8112 3.92253 14.1279 4.17773 14.374 4.50586C14.6201 4.82943 14.8024 5.21224 14.9209 5.6543C15.0394 6.0918 15.0986 6.57031 15.0986 7.08984V7.65723H9.5752V6.625H13.834V6.5293C13.8158 6.20117 13.7474 5.88216 13.6289 5.57227C13.515 5.26237 13.3327 5.00716 13.082 4.80664C12.8314 4.60612 12.4896 4.50586 12.0566 4.50586C11.7695 4.50586 11.5052 4.56738 11.2637 4.69043C11.0221 4.80892 10.8148 4.98665 10.6416 5.22363C10.4684 5.46061 10.334 5.75 10.2383 6.0918C10.1426 6.43359 10.0947 6.8278 10.0947 7.27441V7.56152C10.0947 7.91243 10.1426 8.24284 10.2383 8.55273C10.3385 8.85807 10.4821 9.12695 10.6689 9.35938C10.8604 9.5918 11.0905 9.77409 11.3594 9.90625C11.6328 10.0384 11.9427 10.1045 12.2891 10.1045C12.7357 10.1045 13.1139 10.0133 13.4238 9.83105C13.7337 9.64876 14.0049 9.40495 14.2373 9.09961L15.0029 9.70801C14.8434 9.94954 14.6406 10.1797 14.3945 10.3984C14.1484 10.6172 13.8454 10.7949 13.4854 10.9316C13.1299 11.0684 12.7083 11.1367 12.2207 11.1367ZM17.9492 0.5V11H16.6777V0.5H17.9492ZM23.0488 11.1367C22.5339 11.1367 22.0667 11.0501 21.6475 10.877C21.2327 10.6992 20.875 10.4508 20.5742 10.1318C20.278 9.81283 20.0501 9.43457 19.8906 8.99707C19.7311 8.55957 19.6514 8.08105 19.6514 7.56152V7.27441C19.6514 6.67285 19.7402 6.13737 19.918 5.66797C20.0957 5.19401 20.3372 4.79297 20.6426 4.46484C20.9479 4.13672 21.2943 3.88835 21.6816 3.71973C22.069 3.55111 22.4701 3.4668 22.8848 3.4668C23.4134 3.4668 23.8691 3.55794 24.252 3.74023C24.6393 3.92253 24.9561 4.17773 25.2021 4.50586C25.4482 4.82943 25.6305 5.21224 25.749 5.6543C25.8675 6.0918 25.9268 6.57031 25.9268 7.08984V7.65723H20.4033V6.625H24.6621V6.5293C24.6439 6.20117 24.5755 5.88216 24.457 5.57227C24.3431 5.26237 24.1608 5.00716 23.9102 4.80664C23.6595 4.60612 23.3177 4.50586 22.8848 4.50586C22.5977 4.50586 22.3333 4.56738 22.0918 4.69043C21.8503 4.80892 21.6429 4.98665 21.4697 5.22363C21.2965 5.46061 21.1621 5.75 21.0664 6.0918C20.9707 6.43359 20.9229 6.8278 20.9229 7.27441V7.56152C20.9229 7.91243 20.9707 8.24284 21.0664 8.55273C21.1667 8.85807 21.3102 9.12695 21.4971 9.35938C21.6885 9.5918 21.9186 9.77409 22.1875 9.90625C22.4609 10.0384 22.7708 10.1045 23.1172 10.1045C23.5638 10.1045 23.9421 10.0133 24.252 9.83105C24.5618 9.64876 24.833 9.40495 25.0654 9.09961L25.8311 9.70801C25.6715 9.94954 25.4688 10.1797 25.2227 10.3984C24.9766 10.6172 24.6735 10.7949 24.3135 10.9316C23.958 11.0684 23.5365 11.1367 23.0488 11.1367ZM30.5 3.60352V4.57422H26.501V3.60352H30.5ZM27.8545 1.80566H29.1191V9.16797C29.1191 9.41862 29.1579 9.60775 29.2354 9.73535C29.3128 9.86296 29.4131 9.94727 29.5361 9.98828C29.6592 10.0293 29.7913 10.0498 29.9326 10.0498C30.0374 10.0498 30.1468 10.0407 30.2607 10.0225C30.3792 9.99967 30.4681 9.98145 30.5273 9.96777L30.5342 11C30.4339 11.0319 30.3018 11.0615 30.1377 11.0889C29.9782 11.1208 29.7845 11.1367 29.5566 11.1367C29.2467 11.1367 28.9619 11.0752 28.7021 10.9521C28.4424 10.8291 28.235 10.624 28.0801 10.3369C27.9297 10.0452 27.8545 9.65332 27.8545 9.16113V1.80566ZM35.0527 11.1367C34.5378 11.1367 34.0706 11.0501 33.6514 10.877C33.2367 10.6992 32.8789 10.4508 32.5781 10.1318C32.2819 9.81283 32.054 9.43457 31.8945 8.99707C31.735 8.55957 31.6553 8.08105 31.6553 7.56152V7.27441C31.6553 6.67285 31.7441 6.13737 31.9219 5.66797C32.0996 5.19401 32.3411 4.79297 32.6465 4.46484C32.9518 4.13672 33.2982 3.88835 33.6855 3.71973C34.0729 3.55111 34.474 3.4668 34.8887 3.4668C35.4173 3.4668 35.873 3.55794 36.2559 3.74023C36.6432 3.92253 36.96 4.17773 37.2061 4.50586C37.4521 4.82943 37.6344 5.21224 37.7529 5.6543C37.8714 6.0918 37.9307 6.57031 37.9307 7.08984V7.65723H32.4072V6.625H36.666V6.5293C36.6478 6.20117 36.5794 5.88216 36.4609 5.57227C36.347 5.26237 36.1647 5.00716 35.9141 4.80664C35.6634 4.60612 35.3216 4.50586 34.8887 4.50586C34.6016 4.50586 34.3372 4.56738 34.0957 4.69043C33.8542 4.80892 33.6468 4.98665 33.4736 5.22363C33.3005 5.46061 33.166 5.75 33.0703 6.0918C32.9746 6.43359 32.9268 6.8278 32.9268 7.27441V7.56152C32.9268 7.91243 32.9746 8.24284 33.0703 8.55273C33.1706 8.85807 33.3141 9.12695 33.501 9.35938C33.6924 9.5918 33.9225 9.77409 34.1914 9.90625C34.4648 10.0384 34.7747 10.1045 35.1211 10.1045C35.5677 10.1045 35.946 10.0133 36.2559 9.83105C36.5658 9.64876 36.8369 9.40495 37.0693 9.09961L37.835 9.70801C37.6755 9.94954 37.4727 10.1797 37.2266 10.3984C36.9805 10.6172 36.6774 10.7949 36.3174 10.9316C35.9619 11.0684 35.5404 11.1367 35.0527 11.1367Z" fill="#808B9A"/>
</svg>
