<svg width="13" height="15" viewBox="0 0 13 15" fill="none" xmlns="http://www.w3.org/2000/svg">
<path d="M11.8125 2.9375H9.54297L8.61328 1.40625C8.36719 0.996094 7.95703 0.75 7.49219 0.75H4.73047C4.26562 0.75 3.85547 0.996094 3.60938 1.40625L2.67969 2.9375H0.4375C0.191406 2.9375 0 3.15625 0 3.375V3.8125C0 4.05859 0.191406 4.25 0.4375 4.25H0.875V13C0.875 13.9844 1.64062 14.75 2.625 14.75H9.625C10.582 14.75 11.375 13.9844 11.375 13V4.25H11.8125C12.0312 4.25 12.25 4.05859 12.25 3.8125V3.375C12.25 3.15625 12.0312 2.9375 11.8125 2.9375ZM4.67578 2.14453C4.70312 2.11719 4.75781 2.0625 4.83984 2.0625H7.41016C7.46484 2.0625 7.51953 2.11719 7.54688 2.14453L8.01172 2.9375H4.21094L4.67578 2.14453ZM9.625 13.4375H2.625C2.37891 13.4375 2.1875 13.2461 2.1875 13V4.25H10.0625V13C10.0625 13.2461 9.84375 13.4375 9.625 13.4375ZM6.125 12.125C6.34375 12.125 6.5625 11.9336 6.5625 11.6875V6C6.5625 5.78125 6.34375 5.5625 6.125 5.5625C5.87891 5.5625 5.6875 5.78125 5.6875 6V11.6875C5.6875 11.9336 5.87891 12.125 6.125 12.125ZM3.9375 12.125C4.15625 12.125 4.375 11.9336 4.375 11.6875V6C4.375 5.78125 4.15625 5.5625 3.9375 5.5625C3.69141 5.5625 3.5 5.78125 3.5 6V11.6875C3.5 11.9336 3.69141 12.125 3.9375 12.125ZM8.3125 12.125C8.53125 12.125 8.75 11.9336 8.75 11.6875V6C8.75 5.78125 8.53125 5.5625 8.3125 5.5625C8.06641 5.5625 7.875 5.78125 7.875 6V11.6875C7.875 11.9336 8.06641 12.125 8.3125 12.125Z" fill="#808B9A"/>
</svg>
