<svg width="15" height="15" viewBox="0 0 15 15" fill="none" xmlns="http://www.w3.org/2000/svg">
<path d="M14.4258 2.77344L12.9492 1.29688C12.2383 0.585938 11.0625 0.585938 10.3516 1.29688L1.65625 9.9375L1 14.0117C0.917969 14.4492 1.30078 14.832 1.73828 14.75L5.8125 14.0938L14.4531 5.39844C15.1641 4.6875 15.1641 3.51172 14.4258 2.77344ZM4.28125 9.00781L8.92969 4.38672L11.3633 6.82031L6.74219 11.4688V10.3203H5.42969V9.00781H4.28125ZM3.24219 13.3008L2.44922 12.5078L2.80469 10.5117L3.29688 9.99219H4.44531V11.3047H5.75781V12.4531L5.23828 12.9453L3.24219 13.3008ZM13.6055 4.55078L12.2656 5.89062L9.85938 3.48438L11.1992 2.14453C11.4453 1.89844 11.8555 1.89844 12.1016 2.14453L13.5781 3.62109C13.8516 3.89453 13.8516 4.30469 13.6055 4.55078Z" fill="#233145"/>
</svg>
