<svg width="14" height="13" viewBox="0 0 14 13" fill="none" xmlns="http://www.w3.org/2000/svg">
<path d="M13.125 1.28125C13.125 0.925781 12.8242 0.625 12.4688 0.625H9.84375C9.26953 0.625 8.96875 1.33594 9.40625 1.74609L10.1445 2.51172L7.21875 5.4375C7.08203 5.57422 7.08203 5.79297 7.21875 5.90234L7.84766 6.53125C7.95703 6.66797 8.17578 6.66797 8.3125 6.53125L11.2383 3.60547L12.0039 4.34375C12.4141 4.78125 13.125 4.48047 13.125 3.90625V1.28125ZM5.66016 6.99609L2.73438 9.92188L1.96875 9.18359C1.55859 8.74609 0.875 9.04688 0.875 9.62109V12.2188C0.875 12.6016 1.14844 12.875 1.53125 12.875H4.12891C4.70312 12.875 5.00391 12.1914 4.56641 11.7812L3.82812 11.0156L6.75391 8.08984C6.89062 7.95312 6.89062 7.73438 6.75391 7.625L6.125 6.99609C6.01562 6.85938 5.79688 6.85938 5.66016 6.99609Z" fill="#808B9A"/>
</svg>
