<svg width="16" height="16" viewBox="0 0 16 16" fill="none"
  xmlns="http://www.w3.org/2000/svg">
  <path d="M14.5625 9.0625H13.25V3.8125C13.25 2.60938 12.2656 1.625 11.0625 1.625H2.3125C1.08203 1.625 0.125 2.60938 0.125 3.8125V5.125C0.125 5.86328 0.699219 6.4375 1.4375 6.4375H2.3125V5.125H1.4375V3.8125C1.4375 3.34766 1.82031 2.9375 2.3125 2.9375C2.77734 2.9375 3.1875 3.34766 3.1875 3.8125V11.6875C3.1875 12.918 4.14453 13.875 5.375 13.875H12.6484C14.4258 13.875 15.875 12.4531 15.875 10.6758V10.375C15.875 9.66406 15.2734 9.0625 14.5625 9.0625ZM6.25 9.9375V11.6875C6.25 12.1797 5.83984 12.5625 5.375 12.5625C4.88281 12.5625 4.5 12.1797 4.5 11.6875V3.8125C4.5 3.51172 4.41797 3.21094 4.30859 2.9375H11.0625C11.5273 2.9375 11.9375 3.34766 11.9375 3.8125V9.0625H7.125C6.63281 9.0625 6.25 9.47266 6.25 9.9375ZM14.5625 10.6758C14.5625 11.7148 13.6875 12.5625 12.6484 12.5625H7.37109C7.48047 12.3164 7.5625 12.0156 7.5625 11.6875V10.375H14.5625V10.6758Z" fill="#9CA6BE"/>
</svg>
