<svg width="12" height="13" viewBox="0 0 12 13" fill="none" xmlns="http://www.w3.org/2000/svg">
<path d="M6 0.6875C2.78906 0.6875 0.1875 3.28906 0.1875 6.5C0.1875 9.71094 2.78906 12.3125 6 12.3125C9.21094 12.3125 11.8125 9.71094 11.8125 6.5C11.8125 3.28906 9.21094 0.6875 6 0.6875ZM8.83594 8.04688C8.95312 8.14062 8.95312 8.32812 8.83594 8.44531L7.92188 9.35938C7.80469 9.47656 7.61719 9.47656 7.52344 9.35938L6 7.8125L4.45312 9.35938C4.35938 9.47656 4.17188 9.47656 4.05469 9.35938L3.14062 8.42188C3.02344 8.32812 3.02344 8.14062 3.14062 8.02344L4.6875 6.5L3.14062 4.97656C3.02344 4.88281 3.02344 4.69531 3.14062 4.57812L4.07812 3.66406C4.17188 3.54688 4.35938 3.54688 4.47656 3.66406L6 5.1875L7.52344 3.66406C7.61719 3.54688 7.80469 3.54688 7.92188 3.66406L8.83594 4.57812C8.95312 4.69531 8.95312 4.88281 8.83594 4.97656L7.3125 6.5L8.83594 8.04688Z" fill="#B41400"/>
</svg>
