<svg width="14" height="15" viewBox="0 0 14 15" fill="none" xmlns="http://www.w3.org/2000/svg">
<path d="M10.7188 9.5C10.3359 9.5 10.0625 9.80078 10.0625 10.1562V13.2188C10.0625 13.3555 9.95312 13.4375 9.84375 13.4375H1.53125C1.39453 13.4375 1.3125 13.3555 1.3125 13.2188V4.90625C1.3125 4.79688 1.39453 4.6875 1.53125 4.6875H4.59375C4.94922 4.6875 5.25 4.41406 5.25 4.03125C5.25 3.67578 4.94922 3.375 4.59375 3.375H1.53125C0.683594 3.375 0 4.08594 0 4.90625V13.2188C0 14.0664 0.683594 14.75 1.53125 14.75H9.84375C10.6641 14.75 11.375 14.0664 11.375 13.2188V10.1562C11.375 9.80078 11.0742 9.5 10.7188 9.5ZM13.3438 0.75H8.75C8.36719 0.75 8.09375 1.05078 8.09375 1.40625C8.09375 1.78906 8.36719 2.0625 8.75 2.0625H11.7578L5.00391 8.81641C4.73047 9.08984 4.73047 9.5 5.00391 9.74609C5.11328 9.88281 5.27734 9.9375 5.46875 9.9375C5.63281 9.9375 5.79688 9.88281 5.90625 9.74609L12.6875 2.99219V6C12.6875 6.38281 12.9609 6.65625 13.3438 6.65625C13.6992 6.65625 14 6.38281 14 6V1.40625C14 1.05078 13.6992 0.75 13.3438 0.75Z" fill="#808B9A"/>
</svg>
