<svg width="21" height="13" viewBox="0 0 21 13" fill="none" xmlns="http://www.w3.org/2000/svg">
<path d="M9.625 7.625H8.3125V5.875H9.625C11.0742 5.875 12.25 4.72656 12.25 3.25C12.25 1.80078 11.0742 0.625 9.625 0.625C8.14844 0.625 7 1.80078 7 3.25V4.5625H5.25V3.25C5.25 1.80078 4.07422 0.625 2.625 0.625C1.14844 0.625 0 1.80078 0 3.25C0 4.72656 1.14844 5.875 2.625 5.875H3.9375V7.625H2.625C1.14844 7.625 0 8.80078 0 10.25C0 11.7266 1.14844 12.875 2.625 12.875C4.07422 12.875 5.25 11.7266 5.25 10.25V8.9375H7V10.25C7 11.7266 8.14844 12.875 9.625 12.875C11.0742 12.875 12.25 11.7266 12.25 10.25C12.25 8.80078 11.0742 7.625 9.625 7.625ZM8.3125 3.25C8.3125 2.53906 8.88672 1.9375 9.625 1.9375C10.3359 1.9375 10.9375 2.53906 10.9375 3.25C10.9375 3.98828 10.3359 4.5625 9.625 4.5625H8.3125V3.25ZM3.9375 10.25C3.9375 10.9883 3.33594 11.5625 2.625 11.5625C1.88672 11.5625 1.3125 10.9883 1.3125 10.25C1.3125 9.53906 1.88672 8.9375 2.625 8.9375H3.9375V10.25ZM3.9375 4.5625H2.625C1.88672 4.5625 1.3125 3.98828 1.3125 3.25C1.3125 2.53906 1.88672 1.9375 2.625 1.9375C3.33594 1.9375 3.9375 2.53906 3.9375 3.25V4.5625ZM7 7.625H5.25V5.875H7V7.625ZM9.625 11.5625C8.88672 11.5625 8.3125 10.9883 8.3125 10.25V8.9375H9.625C10.3359 8.9375 10.9375 9.53906 10.9375 10.25C10.9375 10.9883 10.3359 11.5625 9.625 11.5625ZM17.0762 8.09668H14.417V7.02344H17.0762C17.5911 7.02344 18.0081 6.94141 18.3271 6.77734C18.6462 6.61328 18.8786 6.38542 19.0244 6.09375C19.1748 5.80208 19.25 5.4694 19.25 5.0957C19.25 4.75391 19.1748 4.43262 19.0244 4.13184C18.8786 3.83105 18.6462 3.58952 18.3271 3.40723C18.0081 3.22038 17.5911 3.12695 17.0762 3.12695H14.7246V12H13.4053V2.04688H17.0762C17.8281 2.04688 18.4639 2.17676 18.9834 2.43652C19.5029 2.69629 19.8971 3.05632 20.166 3.5166C20.4349 3.97233 20.5693 4.49414 20.5693 5.08203C20.5693 5.72005 20.4349 6.26465 20.166 6.71582C19.8971 7.16699 19.5029 7.51107 18.9834 7.74805C18.4639 7.98047 17.8281 8.09668 17.0762 8.09668Z" fill="#808B9A"/>
</svg>
