<svg width="14" height="16" viewBox="0 0 14 16" fill="none" xmlns="http://www.w3.org/2000/svg">
<path d="M13.5312 6.0625L11.9375 4.46875C11.6562 4.1875 11.2812 4 10.875 4H10V2.5C10 1.6875 9.3125 1 8.5 1H6.5625C6.28125 0.4375 5.6875 0 5 0C4.28125 0 3.6875 0.4375 3.40625 1H1.5C0.65625 1 0 1.6875 0 2.5V11.5C0 12.3438 0.65625 13 1.5 13H4V14.5C4 15.3438 4.65625 16 5.5 16H12.5C13.3125 16 14 15.3438 14 14.5V7.125C14 6.71875 13.8125 6.34375 13.5312 6.0625ZM10.9062 5.5625L12.4375 7.09375C12.4688 7.125 12.5 7.15625 12.5 7.21875V7.5H10.5V5.5H10.7812C10.8438 5.5 10.875 5.53125 10.9062 5.5625ZM5 1.1875C5.28125 1.1875 5.5625 1.46875 5.5625 1.75C5.5625 2.0625 5.28125 2.3125 5 2.3125C4.6875 2.3125 4.4375 2.0625 4.4375 1.75C4.4375 1.46875 4.6875 1.1875 5 1.1875ZM4 5.5V11.5H1.6875C1.5625 11.5 1.5 11.4375 1.5 11.3125V2.6875C1.5 2.59375 1.5625 2.5 1.6875 2.5H3.40625C3.6875 3.09375 4.28125 3.5 5 3.5C5.6875 3.5 6.28125 3.09375 6.5625 2.5H8.3125C8.40625 2.5 8.5 2.59375 8.5 2.6875V4H5.5C4.65625 4 4 4.6875 4 5.5ZM12.3125 14.5H5.6875C5.5625 14.5 5.5 14.4375 5.5 14.3125V5.6875C5.5 5.59375 5.5625 5.5 5.6875 5.5H9V8.25C9 8.6875 9.3125 9 9.75 9H12.5V14.3125C12.5 14.4375 12.4062 14.5 12.3125 14.5Z" fill="#808B9A"/>
</svg>
