<svg width="16" height="16" viewBox="0 0 16 16" fill="none"
  xmlns="http://www.w3.org/2000/svg">
  <path d="M1.45455 4.18182C1.45455 2.97684 2.43138 2 3.63636 2C4.03802 2 4.36364 2.32561 4.36364 2.72727C4.36364 3.12893 4.03802 3.45455 3.63636 3.45455C3.23471 3.45455 2.90909 3.78016 2.90909 4.18182V7.04615C2.90909 7.61942 2.68569 8.15055 2.31236 8.54545C2.68569 8.94036 2.90909 9.47149 2.90909 10.0448V12.9091C2.90909 13.3108 3.23471 13.6364 3.63636 13.6364C4.03802 13.6364 4.36364 13.962 4.36364 14.3636C4.36364 14.7653 4.03802 15.0909 3.63636 15.0909C2.43138 15.0909 1.45455 14.1141 1.45455 12.9091V10.0448C1.45455 9.71105 1.22742 9.42015 0.903665 9.3392L0.55088 9.25098C0.227127 9.17011 0 8.8792 0 8.54545C0 8.21171 0.227127 7.9208 0.55088 7.83993L0.903665 7.75171C1.22742 7.67076 1.45455 7.37985 1.45455 7.04615V4.18182ZM14.5455 4.18182C14.5455 2.97684 13.5687 2 12.3636 2C11.962 2 11.6364 2.32561 11.6364 2.72727C11.6364 3.12893 11.962 3.45455 12.3636 3.45455C12.7653 3.45455 13.0909 3.78016 13.0909 4.18182V7.04615C13.0909 7.61942 13.3143 8.15055 13.6876 8.54545C13.3143 8.94036 13.0909 9.47149 13.0909 10.0448V12.9091C13.0909 13.3108 12.7653 13.6364 12.3636 13.6364C11.962 13.6364 11.6364 13.962 11.6364 14.3636C11.6364 14.7653 11.962 15.0909 12.3636 15.0909C13.5687 15.0909 14.5455 14.1141 14.5455 12.9091V10.0448C14.5455 9.71105 14.7726 9.42015 15.0964 9.3392L15.4491 9.25098C15.7729 9.17011 16 8.8792 16 8.54545C16 8.21171 15.7729 7.9208 15.4491 7.83993L15.0964 7.75171C14.7726 7.67076 14.5455 7.37985 14.5455 7.04615V4.18182ZM6.02862 4.82623C5.78202 4.50917 5.3251 4.45206 5.00804 4.69865C4.69099 4.94525 4.63388 5.40217 4.88047 5.71923L7.07862 8.54545L4.88047 11.3717C4.63388 11.6887 4.69099 12.1457 5.00804 12.3923C5.3251 12.6388 5.78202 12.5817 6.02862 12.2647L8 9.73004L9.97135 12.2647C10.218 12.5817 10.6749 12.6388 10.9919 12.3923C11.309 12.1457 11.3661 11.6887 11.1196 11.3717L8.92138 8.54545L11.1196 5.71923C11.3661 5.40217 11.309 4.94525 10.9919 4.69865C10.6749 4.45206 10.218 4.50917 9.97135 4.82623L8 7.36087L6.02862 4.82623Z" fill="#9CA6BE"/>
</svg>
