<svg width="16" height="16" viewBox="0 0 16 16" fill="none"
  xmlns="http://www.w3.org/2000/svg">
  <path d="M1.875 2.39062C1.875 1.98047 2.20312 1.625 2.64062 1.625H7.72656C8.08203 1.625 8.57422 1.84375 8.82031 2.08984L13.6602 6.92969C14.2617 7.53125 14.2617 8.48828 13.6602 9.08984L9.3125 13.4375C8.71094 14.0391 7.75391 14.0391 7.15234 13.4375L2.3125 8.59766C2.06641 8.35156 1.875 7.85938 1.875 7.50391V2.39062ZM4.0625 4.6875C4.0625 5.17969 4.44531 5.5625 4.9375 5.5625C5.40234 5.5625 5.8125 5.17969 5.8125 4.6875C5.8125 4.22266 5.40234 3.8125 4.9375 3.8125C4.44531 3.8125 4.0625 4.22266 4.0625 4.6875Z" fill="#FA8C16"/>
</svg>
