<svg width="16" height="16" viewBox="0 0 16 16" fill="none"
  xmlns="http://www.w3.org/2000/svg">
  <path d="M12.6484 6.54688L8.32812 2.22656C7.97266 1.89844 7.37109 1.625 6.87891 1.625H2.33984C1.57422 1.625 1 2.22656 1 2.99219V7.53125C1 8.02344 1.24609 8.625 1.57422 8.98047L5.89453 13.3008C6.30469 13.6836 6.82422 13.875 7.34375 13.875C7.86328 13.875 8.38281 13.6836 8.76562 13.3008L12.6484 9.41797C13.4414 8.625 13.4414 7.33984 12.6484 6.54688ZM11.7188 8.48828L7.83594 12.3711C7.5625 12.6445 7.09766 12.6445 6.82422 12.3711L2.50391 8.05078C2.42188 7.94141 2.3125 7.66797 2.3125 7.53125V2.99219L2.33984 2.96484H6.87891C7.01562 2.96484 7.28906 3.07422 7.39844 3.15625L11.7188 7.47656C11.9922 7.75 11.9922 8.21484 11.7188 8.48828ZM4.71875 4.6875C4.71875 5.07031 4.41797 5.34375 4.0625 5.34375C3.67969 5.34375 3.40625 5.07031 3.40625 4.6875C3.40625 4.33203 3.67969 4.03125 4.0625 4.03125C4.41797 4.03125 4.71875 4.33203 4.71875 4.6875ZM14.7812 5.42578L11.0625 1.81641C10.8164 1.57031 10.4062 1.57031 10.1328 1.84375C9.88672 2.08984 9.88672 2.5 10.1602 2.77344L13.8516 6.35547C14.3164 6.82031 14.5625 7.39453 14.5625 8.02344C14.5625 8.65234 14.3164 9.25391 13.8516 9.69141L10.8164 12.7812C10.543 13.0273 10.543 13.4375 10.8164 13.7109C10.9258 13.8203 11.0898 13.875 11.2812 13.875C11.4453 13.875 11.6094 13.8203 11.7461 13.6836L14.7812 10.6211C15.4922 9.9375 15.875 9.00781 15.875 8.02344C15.875 7.03906 15.4922 6.13672 14.7812 5.42578Z" fill="#808B9A"/>
</svg>
