<svg width="32" height="29" viewBox="0 0 32 29" fill="none"
  xmlns="http://www.w3.org/2000/svg">
  <path d="M13.5234 6.54688L9.20312 2.22656C8.84766 1.89844 8.24609 1.625 7.75391 1.625H3.1875C2.44922 1.625 1.84766 2.22656 1.84766 2.99219V7.53125C1.84766 8.02344 2.12109 8.625 2.44922 8.98047L6.76953 13.3008C7.17969 13.6836 7.69922 13.875 8.21875 13.875C8.73828 13.875 9.25781 13.6836 9.64062 13.3008L13.5234 9.41797C14.3164 8.625 14.3164 7.33984 13.5234 6.54688ZM12.5938 8.48828L8.71094 12.3711C8.4375 12.6445 7.97266 12.6445 7.69922 12.3711L3.37891 8.05078C3.29688 7.94141 3.16016 7.66797 3.16016 7.53125V2.99219L3.1875 2.96484H7.75391C7.89062 2.96484 8.16406 3.07422 8.27344 3.15625L12.5938 7.47656C12.8672 7.75 12.8672 8.21484 12.5938 8.48828ZM5.56641 4.6875C5.56641 5.07031 5.26562 5.34375 4.91016 5.34375C4.52734 5.34375 4.25391 5.07031 4.25391 4.6875C4.25391 4.33203 4.55469 4.03125 4.91016 4.03125C5.29297 4.03125 5.56641 4.33203 5.56641 4.6875Z" fill="white"/>
</svg>
