<svg width="24" height="24" viewBox="0 0 24 24" fill="none" xmlns="http://www.w3.org/2000/svg">
<path d="M11.625 0C5.20312 0 0 5.20312 0 11.625C0 18.0469 5.20312 23.25 11.625 23.25C18.0469 23.25 23.25 18.0469 23.25 11.625C23.25 5.20312 18.0469 0 11.625 0ZM11.625 4.5C13.875 4.5 15.75 6.375 15.75 8.625C15.75 10.9219 13.875 12.75 11.625 12.75C9.32812 12.75 7.5 10.9219 7.5 8.625C7.5 6.375 9.32812 4.5 11.625 4.5ZM11.625 20.625C8.85938 20.625 6.375 19.4062 4.73438 17.4375C5.625 15.7969 7.35938 14.625 9.375 14.625C9.46875 14.625 9.5625 14.6719 9.70312 14.7188C10.3125 14.9062 10.9219 15 11.625 15C12.2812 15 12.9375 14.9062 13.5 14.7188C13.6406 14.6719 13.7344 14.625 13.875 14.625C15.8438 14.625 17.5781 15.7969 18.4688 17.4375C16.8281 19.4062 14.3438 20.625 11.625 20.625Z" fill="#808B9A"/>
</svg>
