<svg width="14" height="15" viewBox="0 0 14 15" fill="none" xmlns="http://www.w3.org/2000/svg">
<path d="M7 0.96875C3.25391 0.96875 0.21875 4.00391 0.21875 7.75C0.21875 11.4961 3.25391 14.5312 7 14.5312C10.7461 14.5312 13.7812 11.4961 13.7812 7.75C13.7812 4.00391 10.7461 0.96875 7 0.96875ZM10.3086 9.55469C10.4453 9.66406 10.4453 9.88281 10.3086 10.0195L9.24219 11.0859C9.10547 11.2227 8.88672 11.2227 8.77734 11.0859L7 9.28125L5.19531 11.0859C5.08594 11.2227 4.86719 11.2227 4.73047 11.0859L3.66406 9.99219C3.52734 9.88281 3.52734 9.66406 3.66406 9.52734L5.46875 7.75L3.66406 5.97266C3.52734 5.86328 3.52734 5.64453 3.66406 5.50781L4.75781 4.44141C4.86719 4.30469 5.08594 4.30469 5.22266 4.44141L7 6.21875L8.77734 4.44141C8.88672 4.30469 9.10547 4.30469 9.24219 4.44141L10.3086 5.50781C10.4453 5.64453 10.4453 5.86328 10.3086 5.97266L8.53125 7.75L10.3086 9.55469Z" fill="#808B9A"/>
</svg>
