<svg width="16" height="16" viewBox="0 0 16 16" fill="none"
  xmlns="http://www.w3.org/2000/svg">
  <path d="M12.8125 6.875H8.875V2.9375C8.875 2.71875 8.65625 2.5 8.4375 2.5H7.5625C7.31641 2.5 7.125 2.71875 7.125 2.9375V6.875H3.1875C2.94141 6.875 2.75 7.09375 2.75 7.3125V8.1875C2.75 8.43359 2.94141 8.625 3.1875 8.625H7.125V12.5625C7.125 12.8086 7.31641 13 7.5625 13H8.4375C8.65625 13 8.875 12.8086 8.875 12.5625V8.625H12.8125C13.0312 8.625 13.25 8.43359 13.25 8.1875V7.3125C13.25 7.09375 13.0312 6.875 12.8125 6.875Z" fill="#9CA6BE"/>
</svg>
