<svg width="16" height="16" viewBox="0 0 16 16" fill="none"
  xmlns="http://www.w3.org/2000/svg">
  <path d="M8 7.75C7.01562 7.75 6.25 8.54297 6.25 9.5C6.25 10.4844 7.01562 11.25 8 11.25C8.95703 11.25 9.75 10.4844 9.75 9.5C9.75 8.54297 8.95703 7.75 8 7.75ZM13.7148 4.30469L11.418 2.00781C11.1992 1.78906 10.8438 1.625 10.5156 1.625H3.625C2.64062 1.625 1.875 2.41797 1.875 3.375V12.125C1.875 13.1094 2.64062 13.875 3.625 13.875H12.375C13.332 13.875 14.125 13.1094 14.125 12.125V5.23438C14.125 4.90625 13.9609 4.55078 13.7148 4.30469ZM5.375 2.9375H9.3125V5.125H5.375V2.9375ZM12.8125 12.125C12.8125 12.3711 12.5938 12.5625 12.375 12.5625H3.625C3.37891 12.5625 3.1875 12.3711 3.1875 12.125V3.375C3.1875 3.15625 3.37891 2.9375 3.625 2.9375H4.0625V5.78125C4.0625 6.16406 4.33594 6.4375 4.71875 6.4375H9.96875C10.3242 6.4375 10.625 6.16406 10.625 5.78125V3.04688L12.7578 5.20703C12.7852 5.23438 12.8125 5.26172 12.8125 5.31641V12.125Z" fill="#808B9A"/>
</svg>
