<svg width="32" height="32" viewBox="0 0 32 32" fill="none" xmlns="http://www.w3.org/2000/svg">
    <path d="M16 0.25C7.30234 0.25 0.25 7.30234 0.25 16C0.25 24.6977 7.30234 31.75 16 31.75C24.6977 31.75 31.75 24.6977 31.75 16C31.75 7.30234 24.6977 0.25 16 0.25ZM14.875 8.40625C14.875 8.25156 15.0016 8.125 15.1562 8.125H16.8438C16.9984 8.125 17.125 8.25156 17.125 8.40625V17.9688C17.125 18.1234 16.9984 18.25 16.8438 18.25H15.1562C15.0016 18.25 14.875 18.1234 14.875 17.9688V8.40625ZM16 23.875C15.5584 23.866 15.138 23.6842 14.8288 23.3687C14.5197 23.0533 14.3466 22.6292 14.3466 22.1875C14.3466 21.7458 14.5197 21.3217 14.8288 21.0063C15.138 20.6908 15.5584 20.509 16 20.5C16.4416 20.509 16.8621 20.6908 17.1712 21.0063C17.4803 21.3217 17.6534 21.7458 17.6534 22.1875C17.6534 22.6292 17.4803 23.0533 17.1712 23.3687C16.8621 23.6842 16.4416 23.866 16 23.875Z"
          fill="#fa8c16" fill-opacity="0.85"/>
</svg>
