<svg width="16" height="16" viewBox="0 0 16 16" fill="none"
  xmlns="http://www.w3.org/2000/svg">
  <path d="M9.875 6.60156C9.64062 6.39062 9.28906 6.39062 9.07812 6.60156L8 7.72656L6.875 6.60156C6.64062 6.39062 6.28906 6.39062 6.07812 6.60156C5.84375 6.83594 5.84375 7.1875 6.07812 7.39844L7.17969 8.5L6.10156 9.60156C5.86719 9.83594 5.86719 10.1875 6.10156 10.3984C6.3125 10.6328 6.66406 10.6328 6.875 10.3984L8 9.29688L9.10156 10.3984C9.3125 10.6328 9.66406 10.6328 9.875 10.3984C10.1094 10.1875 10.1094 9.83594 9.875 9.60156L8.77344 8.5L9.875 7.39844C10.1094 7.1875 10.1094 6.83594 9.875 6.60156ZM8 2.5C4.67188 2.5 2 5.19531 2 8.5C2 11.8281 4.67188 14.5 8 14.5C11.3047 14.5 14 11.8281 14 8.5C14 5.19531 11.3047 2.5 8 2.5ZM8 13.375C5.30469 13.375 3.125 11.1953 3.125 8.5C3.125 5.82812 5.30469 3.625 8 3.625C10.6719 3.625 12.875 5.82812 12.875 8.5C12.875 11.1953 10.6719 13.375 8 13.375Z" fill="#9CA6BE"/>
</svg>
