<svg width="16" height="16" viewBox="0 0 16 16" fill="none"
  xmlns="http://www.w3.org/2000/svg">
  <path d="M4.9375 6.4375C4.44531 6.4375 4.0625 6.84766 4.0625 7.3125C4.0625 7.80469 4.44531 8.1875 4.9375 8.1875C5.40234 8.1875 5.78516 7.80469 5.78516 7.3125C5.78516 6.84766 5.40234 6.4375 4.9375 6.4375ZM8 6.4375C7.50781 6.4375 7.125 6.82031 7.125 7.3125C7.125 7.77734 7.53516 8.16016 8 8.16016C8.4375 8.16016 8.84766 7.75 8.84766 7.3125C8.84766 6.84766 8.46484 6.4375 8 6.4375ZM11.0625 6.4375C10.5703 6.4375 10.1875 6.84766 10.1875 7.3125C10.1875 7.80469 10.5977 8.1875 11.0625 8.1875C11.5273 8.1875 11.9102 7.80469 11.9102 7.3125C11.9375 6.84766 11.5273 6.4375 11.0625 6.4375ZM8 1.625C4.11719 1.625 1 4.16797 1 7.3125C1 8.59766 1.54688 9.80078 2.44922 10.7578C2.03906 11.8242 1.19141 12.7539 1.19141 12.7539C1 12.9453 0.972656 13.2188 1.05469 13.4648C1.13672 13.7383 1.38281 13.875 1.65625 13.875C3.32422 13.875 4.63672 13.1914 5.45703 12.6172C6.22266 12.8633 7.09766 13 8 13C11.8555 13 14.9727 10.457 14.9727 7.33984C14.9727 4.22266 11.8555 1.625 8 1.625ZM8 11.6875C7.26172 11.6875 6.52344 11.5781 5.83984 11.3594L5.21094 11.168L4.69141 11.5508C4.30859 11.8242 3.76172 12.125 3.10547 12.3438C3.32422 12.0156 3.51562 11.6328 3.65234 11.25L3.95312 10.4844L3.37891 9.88281C2.88672 9.36328 2.3125 8.48828 2.3125 7.3125C2.3125 4.90625 4.85547 2.9375 7.97266 2.9375C11.0898 2.9375 13.6328 4.90625 13.6328 7.3125C13.6328 9.74609 11.1172 11.6875 8 11.6875Z" fill="#808B9A"/>
</svg>
