<svg width="11" height="15" viewBox="0 0 11 15" fill="none" xmlns="http://www.w3.org/2000/svg">
<path d="M10.0898 3.42969L7.82031 1.16016C7.57422 0.914062 7.24609 0.75 6.89062 0.75H1.3125C0.574219 0.75 0 1.35156 0 2.0625V13.4375C0 14.1758 0.574219 14.75 1.3125 14.75H9.1875C9.89844 14.75 10.5 14.1758 10.5 13.4375V4.35938C10.5 4.00391 10.3359 3.67578 10.0898 3.42969ZM9.07812 4.25H7V2.17188L9.07812 4.25ZM1.3125 13.4375V2.0625H5.6875V4.90625C5.6875 5.28906 5.96094 5.5625 6.34375 5.5625H9.1875V13.4375H1.3125ZM8.44922 8.1875C8.55859 8.05078 8.55859 7.85938 8.44922 7.72266L7.82031 7.09375C7.71094 6.95703 7.49219 6.95703 7.35547 7.09375L4.32031 10.1016L3.11719 8.89844C2.98047 8.76172 2.78906 8.76172 2.65234 8.89844L2.02344 9.5C1.91406 9.63672 1.91406 9.85547 2.02344 9.96484L4.07422 12.043C4.21094 12.1797 4.42969 12.1797 4.53906 12.043L8.44922 8.1875Z" fill="#276EF1"/>
</svg>
