<svg width="16" height="16" viewBox="0 0 16 16" fill="none"
  xmlns="http://www.w3.org/2000/svg">
  <path d="M8 0.75C4.11719 0.75 1 3.89453 1 7.75C1 11.6328 4.11719 14.75 8 14.75C11.8555 14.75 15 11.6328 15 7.75C15 3.89453 11.8555 0.75 8 0.75ZM8 13.4375C4.85547 13.4375 2.3125 10.8945 2.3125 7.75C2.3125 4.63281 4.85547 2.0625 8 2.0625C11.1172 2.0625 13.6875 4.63281 13.6875 7.75C13.6875 10.8945 11.1172 13.4375 8 13.4375ZM9.09375 9.9375H8.65625V7.53125C8.65625 7.17578 8.35547 6.875 8 6.875H7.125C6.74219 6.875 6.46875 7.17578 6.46875 7.53125C6.46875 7.91406 6.74219 8.1875 7.125 8.1875H7.34375V9.9375H6.90625C6.52344 9.9375 6.25 10.2383 6.25 10.5938C6.25 10.9766 6.52344 11.25 6.90625 11.25H9.09375C9.44922 11.25 9.75 10.9766 9.75 10.5938C9.75 10.2383 9.44922 9.9375 9.09375 9.9375ZM8 6C8.46484 6 8.875 5.61719 8.875 5.125C8.875 4.66016 8.46484 4.25 8 4.25C7.50781 4.25 7.125 4.66016 7.125 5.125C7.125 5.61719 7.50781 6 8 6Z" fill="#9CA6BE"/>
</svg>
