<svg width="16" height="16" viewBox="0 0 16 16" fill="none"
  xmlns="http://www.w3.org/2000/svg">
  <path d="M8 6.5C7.15625 6.5 6.5 7.1875 6.5 8C6.5 8.84375 7.15625 9.5 8 9.5C8.8125 9.5 9.5 8.84375 9.5 8C9.5 7.1875 8.8125 6.5 8 6.5ZM6.5 3.25C6.5 4.09375 7.15625 4.75 8 4.75C8.8125 4.75 9.5 4.09375 9.5 3.25C9.5 2.4375 8.8125 1.75 8 1.75C7.15625 1.75 6.5 2.4375 6.5 3.25ZM6.5 12.75C6.5 13.5938 7.15625 14.25 8 14.25C8.8125 14.25 9.5 13.5938 9.5 12.75C9.5 11.9375 8.8125 11.25 8 11.25C7.15625 11.25 6.5 11.9375 6.5 12.75Z" fill="#9CA6BE"/>
</svg>
