<svg width="600" height="150" viewBox="0 0 600 150" fill="none" xmlns="http://www.w3.org/2000/svg">
<g clip-path="url(#clip0)">
<rect width="600" height="150" fill="#200278"/>
<path fill-rule="evenodd" clip-rule="evenodd" d="M19.5864 110.671C21.8796 110.671 23.9643 108.813 23.9643 106.335C23.9643 104.065 21.8796 102 19.3779 102C17.0847 102 15 103.858 15 106.335C15 108.813 17.0847 110.877 19.5864 110.671ZM48.9812 110.671C51.2744 110.671 53.3591 108.813 53.3591 106.335C53.3591 104.065 51.4829 102 48.9812 102C46.688 102 44.6033 104.065 44.6033 106.335C44.6033 108.606 46.4795 110.671 48.9812 110.671ZM82.962 106.335C82.962 108.813 80.8773 110.671 78.5841 110.671C76.0824 110.671 74.2062 108.606 74.2062 106.335C74.2062 104.065 76.2909 102 78.5841 102C81.0858 102 82.962 104.065 82.962 106.335ZM108.187 110.671C110.481 110.671 112.565 108.813 112.565 106.335C112.565 104.065 110.481 102 108.187 102C105.894 102 103.809 104.065 103.809 106.335C103.809 108.606 105.686 110.671 108.187 110.671ZM141.96 106.335C141.96 108.813 139.875 110.671 137.582 110.671C135.08 110.671 133.204 108.606 133.204 106.335C133.204 104.065 135.289 102 137.582 102C140.084 102 141.96 104.065 141.96 106.335ZM167.185 110.671C169.478 110.671 171.563 108.813 171.563 106.335C171.563 104.065 169.478 102 167.185 102C164.683 102 162.807 104.065 162.807 106.335C162.807 108.606 164.683 110.671 167.185 110.671ZM201.166 106.335C201.166 108.813 199.081 110.671 196.788 110.671C194.287 110.671 192.41 108.606 192.41 106.335C192.41 104.065 194.287 102 196.58 102C199.081 102 201.166 104.065 201.166 106.335ZM226.183 110.671C228.476 110.671 230.561 108.813 230.561 106.335C230.561 104.065 228.685 102 226.183 102C223.89 102 221.805 104.065 221.805 106.335C221.805 108.606 223.681 110.671 226.183 110.671ZM260.164 106.335C260.164 108.813 258.079 110.671 255.786 110.671C253.493 110.671 251.408 108.606 251.408 106.335C251.408 104.065 253.493 102 255.786 102C258.079 102 260.164 104.065 260.164 106.335ZM34.5963 134C36.8895 134 38.9743 132.142 38.9743 129.665C38.9743 127.187 36.8895 125.329 34.5963 125.329C32.3031 125.329 30.2184 127.187 30.2184 129.665C30.2184 131.936 32.3031 134 34.5963 134ZM68.369 129.665C68.369 132.142 66.2842 134 63.991 134C61.4894 134 59.6131 131.936 59.6131 129.665C59.6131 127.187 61.6978 125.329 63.991 125.329C66.4927 125.123 68.369 127.187 68.369 129.665ZM93.5943 134C95.8875 134 97.9722 132.142 97.9722 129.665C97.9722 127.187 95.8875 125.123 93.5943 125.329C91.3011 125.329 89.2164 127.187 89.2164 129.665C89.2164 131.936 91.0926 134 93.5943 134ZM127.575 129.665C127.575 132.142 125.49 134 123.197 134C120.904 134 118.819 131.936 118.819 129.665C118.819 127.187 120.904 125.329 123.197 125.329C125.49 125.329 127.575 127.187 127.575 129.665ZM152.592 134C154.885 134 156.97 132.142 156.97 129.665C156.97 127.187 154.885 125.329 152.592 125.329C150.299 125.329 148.214 127.187 148.214 129.665C148.214 131.936 150.299 134 152.592 134ZM186.573 129.665C186.573 132.142 184.488 134 182.195 134C179.694 134 177.817 131.936 177.817 129.665C177.817 127.187 179.902 125.329 182.195 125.329C184.488 125.123 186.573 127.187 186.573 129.665ZM211.59 134C213.883 134 215.968 132.142 215.968 129.665C215.968 127.187 214.092 125.123 211.59 125.329C209.297 125.329 207.212 127.187 207.212 129.665C207.212 131.936 209.088 134 211.59 134ZM245.571 129.665C245.571 132.142 243.486 134 241.193 134C238.691 134 236.815 131.936 236.815 129.665C236.815 127.187 238.9 125.329 241.193 125.329C243.694 125.123 245.571 127.187 245.571 129.665ZM270.796 134C273.089 134 275.174 132.142 275.174 129.665C275.174 127.187 273.089 125.123 270.796 125.329C268.503 125.329 266.418 127.187 266.418 129.665C266.418 131.936 268.294 134 270.796 134Z" fill="url(#paint0_linear)"/>
<circle cx="78.5" cy="68.5" r="126.5" fill="url(#paint1_linear)" stroke="url(#paint2_linear)" stroke-width="4"/>
<path fill-rule="evenodd" clip-rule="evenodd" d="M58.5371 111.063H96.7851L91.4719 102.203L131.6 38H58.5371V111.063Z" fill="#F04864"/>
<path fill-rule="evenodd" clip-rule="evenodd" d="M53.7351 114.262H91.9831L86.6699 105.402L126.798 41.1995H53.7351V114.262Z" fill="#F04864" fill-opacity="0.4"/>
<path fill-rule="evenodd" clip-rule="evenodd" d="M50 118.001H88.248L82.9348 109.141L123.063 44.9377H50V118.001Z" fill="#F04864" fill-opacity="0.2"/>
<path fill-rule="evenodd" clip-rule="evenodd" d="M131.601 111.064H90.1864L73.7048 84.579L101.147 62.3557L131.601 111.064Z" fill="#CC1433"/>
<path fill-rule="evenodd" clip-rule="evenodd" d="M92.6332 95.9642C104.469 95.9642 114.065 86.3686 114.065 74.5324C114.065 62.6957 104.469 53.1006 92.6332 53.1006C80.7965 53.1006 71.2014 62.6957 71.2014 74.5324C71.2014 86.3686 80.7965 95.9642 92.6332 95.9642Z" fill="white"/>
<path fill-rule="evenodd" clip-rule="evenodd" d="M83.3787 86.2216V62.8415H94.4004C99.4106 62.8415 102.918 66.3485 102.918 70.8575C102.918 75.8676 98.9099 77.7044 98.9099 77.7044L103.753 86.2216H97.0726L93.0649 78.8734H89.7244V86.2216H83.3787ZM96.5714 70.8575C96.5714 69.5214 95.5695 68.5195 94.0663 68.5195H89.7244V73.1955H94.0663C95.5695 73.1955 96.5714 72.1935 96.5714 70.8575Z" fill="#CC1433"/>
<circle cx="352.5" cy="7.5" r="50.5" fill="url(#paint3_linear)"/>
<circle cx="517" cy="150" r="114" fill="url(#paint4_linear)"/>
<path d="M251.28 67.2L247.8 78.72L244.32 67.2H240.48L246 84H249.36L252.96 72.72L256.56 84H259.92L265.44 67.2H261.6L258.12 78.72L254.64 67.2H251.28ZM277.561 79.2C277.561 79.2 277.681 78.72 277.681 77.88C277.681 74.52 275.161 72 271.801 72C268.441 72 265.681 74.76 265.681 78.12C265.681 81.48 268.441 84.24 271.921 84.24C275.161 84.24 276.961 82.2 276.961 82.2L275.281 80.04C275.281 80.04 274.201 81.48 272.161 81.48C270.361 81.48 269.281 80.4 269.041 79.2H277.561ZM271.801 74.76C273.241 74.76 274.201 75.72 274.441 76.92H269.041C269.401 75.72 270.361 74.76 271.801 74.76ZM283.448 67.2H280.208V84H283.448V67.2ZM285.978 78.12C285.978 81.36 288.858 84.24 292.338 84.24C295.578 84.24 297.138 81.84 297.138 81.84L295.218 79.8C295.218 79.8 294.138 81.36 292.338 81.36C290.658 81.36 289.218 79.92 289.218 78.12C289.218 76.32 290.658 74.88 292.338 74.88C294.138 74.88 295.098 76.44 295.098 76.44L297.138 74.4C297.138 74.4 295.578 72 292.338 72C288.858 72 285.978 74.88 285.978 78.12ZM301.947 78.12C301.947 76.32 303.267 75 304.827 75C306.387 75 307.707 76.32 307.707 78.12C307.707 79.92 306.387 81.24 304.827 81.24C303.267 81.24 301.947 79.92 301.947 78.12ZM311.067 78.12C311.067 74.88 308.187 72 304.827 72C301.467 72 298.587 74.88 298.587 78.12C298.587 81.36 301.467 84.24 304.827 84.24C308.187 84.24 311.067 81.36 311.067 78.12ZM328.103 84H331.343V77.16C331.343 73.68 329.663 72 327.143 72C324.503 72 323.183 74.04 323.183 74.04C323.183 74.04 322.343 72 319.823 72C317.783 72 316.703 73.68 316.703 73.68V72.24H313.463V84H316.703V77.88C316.703 76.08 317.663 75.12 318.863 75.12C319.943 75.12 320.783 75.96 320.783 77.52V84H324.023V77.88C324.023 76.08 324.983 75.12 326.183 75.12C327.263 75.12 328.103 75.96 328.103 77.52V84ZM345.623 79.2C345.623 79.2 345.743 78.72 345.743 77.88C345.743 74.52 343.223 72 339.863 72C336.503 72 333.743 74.76 333.743 78.12C333.743 81.48 336.503 84.24 339.983 84.24C343.223 84.24 345.023 82.2 345.023 82.2L343.343 80.04C343.343 80.04 342.263 81.48 340.223 81.48C338.423 81.48 337.343 80.4 337.103 79.2H345.623ZM339.863 74.76C341.303 74.76 342.263 75.72 342.503 76.92H337.103C337.463 75.72 338.423 74.76 339.863 74.76ZM354.513 70.92C354.513 71.88 353.913 72.48 353.193 72.48H352.113V75.36H354.153V80.16C354.153 82.92 355.473 84.24 357.873 84.24C359.073 84.24 360.033 83.88 360.033 83.88V81.12C360.033 81.12 359.553 81.36 358.833 81.36C357.993 81.36 357.393 80.76 357.393 80.04V75.36H359.793V72.48H357.393V68.76H354.513V70.92ZM364.971 78.12C364.971 76.32 366.291 75 367.851 75C369.411 75 370.731 76.32 370.731 78.12C370.731 79.92 369.411 81.24 367.851 81.24C366.291 81.24 364.971 79.92 364.971 78.12ZM374.091 78.12C374.091 74.88 371.211 72 367.851 72C364.491 72 361.611 74.88 361.611 78.12C361.611 81.36 364.491 84.24 367.851 84.24C371.211 84.24 374.091 81.36 374.091 78.12ZM385.729 67.2H382.129V84H385.729V79.2L387.889 76.8L392.809 84H397.009L390.289 74.16L396.529 67.2H392.329L385.729 74.52V67.2ZM404.928 84C405.648 84 408.168 84 408.168 84V76.68C408.168 74.04 406.128 72 403.128 72C400.008 72 398.448 74.28 398.448 74.28L400.248 76.08C400.248 76.08 401.088 74.88 402.888 74.88C404.208 74.88 404.928 75.6 404.928 76.56L401.208 77.232C399.048 77.616 397.728 78.96 397.728 80.88C397.728 82.68 399.288 84.24 401.688 84.24C403.728 84.24 404.928 82.8 404.928 82.8V84ZM402.528 81.6C401.448 81.6 400.968 81.12 400.968 80.4C400.968 79.68 401.448 79.224 402.288 79.08L404.928 78.6V78.96C404.928 80.64 403.968 81.6 402.528 81.6ZM412.732 70.92C412.732 71.88 412.132 72.48 411.412 72.48H410.332V75.36H412.372V80.16C412.372 82.92 413.692 84.24 416.092 84.24C417.292 84.24 418.252 83.88 418.252 83.88V81.12C418.252 81.12 417.772 81.36 417.052 81.36C416.212 81.36 415.612 80.76 415.612 80.04V75.36H418.012V72.48H415.612V68.76H412.732V70.92ZM427.498 84C428.218 84 430.738 84 430.738 84V76.68C430.738 74.04 428.698 72 425.698 72C422.578 72 421.018 74.28 421.018 74.28L422.818 76.08C422.818 76.08 423.658 74.88 425.458 74.88C426.778 74.88 427.498 75.6 427.498 76.56L423.778 77.232C421.618 77.616 420.298 78.96 420.298 80.88C420.298 82.68 421.858 84.24 424.258 84.24C426.298 84.24 427.498 82.8 427.498 82.8V84ZM425.098 81.6C424.018 81.6 423.538 81.12 423.538 80.4C423.538 79.68 424.018 79.224 424.858 79.08L427.498 78.6V78.96C427.498 80.64 426.538 81.6 425.098 81.6ZM437.222 67.2H433.982V84H437.222V67.2ZM443.111 78.12C443.111 76.32 444.431 75 445.991 75C447.551 75 448.871 76.32 448.871 78.12C448.871 79.92 447.551 81.24 445.991 81.24C444.431 81.24 443.111 79.92 443.111 78.12ZM452.231 78.12C452.231 74.88 449.351 72 445.991 72C442.631 72 439.751 74.88 439.751 78.12C439.751 81.36 442.631 84.24 445.991 84.24C449.351 84.24 452.231 81.36 452.231 78.12ZM457.868 72.24H454.628V84H457.868V77.88C457.868 76.08 458.828 75.12 460.268 75.12C461.588 75.12 462.548 76.08 462.548 77.52V84H465.788V77.16C465.788 73.92 463.868 72 461.228 72C459.068 72 457.868 73.68 457.868 73.68V72.24ZM474.543 84H478.143V78.12H481.263L484.503 84H488.343L484.743 77.64C484.743 77.64 487.743 76.32 487.743 72.72C487.743 69.648 485.343 67.2 481.983 67.2H474.543V84ZM484.143 72.72C484.143 73.92 483.183 74.88 481.863 74.88H478.143V70.44H481.863C483.183 70.44 484.143 71.4 484.143 72.72ZM502.022 79.2C502.022 79.2 502.142 78.72 502.142 77.88C502.142 74.52 499.622 72 496.262 72C492.902 72 490.142 74.76 490.142 78.12C490.142 81.48 492.902 84.24 496.382 84.24C499.622 84.24 501.422 82.2 501.422 82.2L499.742 80.04C499.742 80.04 498.662 81.48 496.622 81.48C494.822 81.48 493.742 80.4 493.502 79.2H502.022ZM496.262 74.76C497.702 74.76 498.662 75.72 498.902 76.92H493.502C493.862 75.72 494.822 74.76 496.262 74.76ZM503.829 78.12C503.829 81.36 506.709 84.24 510.189 84.24C513.429 84.24 514.989 81.84 514.989 81.84L513.069 79.8C513.069 79.8 511.989 81.36 510.189 81.36C508.509 81.36 507.069 79.92 507.069 78.12C507.069 76.32 508.509 74.88 510.189 74.88C511.989 74.88 512.949 76.44 512.949 76.44L514.989 74.4C514.989 74.4 513.429 72 510.189 72C506.709 72 503.829 74.88 503.829 78.12ZM519.799 78.12C519.799 76.32 521.119 75 522.679 75C524.239 75 525.559 76.32 525.559 78.12C525.559 79.92 524.239 81.24 522.679 81.24C521.119 81.24 519.799 79.92 519.799 78.12ZM528.919 78.12C528.919 74.88 526.039 72 522.679 72C519.319 72 516.439 74.88 516.439 78.12C516.439 81.36 519.319 84.24 522.679 84.24C526.039 84.24 528.919 81.36 528.919 78.12ZM538.395 72.12H537.915C535.755 72.12 534.555 73.68 534.555 73.68V72.24H531.315V84H534.555V78.36C534.555 76.32 535.635 75.24 537.315 75.24C538.035 75.24 538.395 75.36 538.395 75.36V72.12ZM545.118 72C542.118 72 539.478 74.64 539.478 78.12C539.478 81.6 542.118 84.24 545.118 84.24C547.398 84.24 548.598 82.56 548.598 82.56V84H551.838V67.2H548.598V73.68C548.598 73.68 547.398 72 545.118 72ZM545.718 81.36C544.158 81.36 542.838 80.04 542.838 78.12C542.838 76.2 544.158 74.88 545.718 74.88C547.278 74.88 548.598 76.2 548.598 78.12C548.598 80.04 547.278 81.36 545.718 81.36ZM566.241 79.2C566.241 79.2 566.361 78.72 566.361 77.88C566.361 74.52 563.841 72 560.481 72C557.121 72 554.361 74.76 554.361 78.12C554.361 81.48 557.121 84.24 560.601 84.24C563.841 84.24 565.641 82.2 565.641 82.2L563.961 80.04C563.961 80.04 562.881 81.48 560.841 81.48C559.041 81.48 557.961 80.4 557.721 79.2H566.241ZM560.481 74.76C561.921 74.76 562.881 75.72 563.121 76.92H557.721C558.081 75.72 559.041 74.76 560.481 74.76ZM575.848 72.12H575.368C573.208 72.12 572.008 73.68 572.008 73.68V72.24H568.768V84H572.008V78.36C572.008 76.32 573.088 75.24 574.768 75.24C575.488 75.24 575.848 75.36 575.848 75.36V72.12Z" fill="white"/>
</g>
<defs>
<linearGradient id="paint0_linear" x1="56.7391" y1="80.4347" x2="278.652" y2="124.261" gradientUnits="userSpaceOnUse">
<stop stop-color="#B9FEFF"/>
<stop offset="1" stop-color="white" stop-opacity="0"/>
</linearGradient>
<linearGradient id="paint1_linear" x1="-128.631" y1="-265.476" x2="78.5" y2="197" gradientUnits="userSpaceOnUse">
<stop stop-color="white"/>
<stop offset="1" stop-color="white" stop-opacity="0"/>
</linearGradient>
<linearGradient id="paint2_linear" x1="78.5" y1="-60" x2="255.357" y2="305.94" gradientUnits="userSpaceOnUse">
<stop stop-color="#00A9FF"/>
<stop offset="1" stop-color="#00F2FE"/>
</linearGradient>
<linearGradient id="paint3_linear" x1="429.882" y1="24.4934" x2="281.13" y2="58" gradientUnits="userSpaceOnUse">
<stop stop-color="#160058"/>
<stop offset="1" stop-color="#1B0069" stop-opacity="0"/>
</linearGradient>
<linearGradient id="paint4_linear" x1="691.684" y1="188.361" x2="437.894" y2="210.251" gradientUnits="userSpaceOnUse">
<stop stop-color="#1B0069"/>
<stop offset="1" stop-color="#1B0069" stop-opacity="0"/>
</linearGradient>
<clipPath id="clip0">
<rect width="600" height="150" fill="white"/>
</clipPath>
</defs>
</svg>
