<svg width="16" height="16" viewBox="0 0 16 16" fill="none"
  xmlns="http://www.w3.org/2000/svg">
  <path d="M14.125 8.625H9.75C9.25781 8.625 8.875 9.03516 8.875 9.5V13.875C8.875 14.3672 9.25781 14.75 9.75 14.75H14.125C14.5898 14.75 15 14.3672 15 13.875V9.5C15 9.03516 14.5898 8.625 14.125 8.625ZM13.6875 13.4375H10.1875V9.9375H13.6875V13.4375ZM4.5 7.75C2.55859 7.75 1 9.33594 1 11.25C1 13.1914 2.55859 14.75 4.5 14.75C6.41406 14.75 8 13.1914 8 11.25C8 9.33594 6.41406 7.75 4.5 7.75ZM4.5 13.4375C3.26953 13.4375 2.3125 12.4805 2.3125 11.25C2.3125 10.0469 3.26953 9.0625 4.5 9.0625C5.70312 9.0625 6.6875 10.0469 6.6875 11.25C6.6875 12.4805 5.70312 13.4375 4.5 13.4375ZM14.8359 6.27344L11.9375 1.26953C11.7188 0.941406 11.3906 0.75 11.0625 0.75C10.707 0.75 10.3789 0.941406 10.1602 1.26953L7.26172 6.27344C6.85156 6.92969 7.34375 7.75 8.13672 7.75H13.9609C14.7539 7.75 15.2461 6.92969 14.8359 6.27344ZM8.65625 6.4375L11.0625 2.36328L13.4414 6.4375H8.65625Z" fill="#9CA6BE"/>
</svg>
