<svg width="10" height="13" viewBox="0 0 10 13" fill="none"
  xmlns="http://www.w3.org/2000/svg">
  <path d="M9.05469 2.70312L7.29688 0.945312C7.01562 0.664062 6.64062 0.5 6.24219 0.5H2C1.15625 0.5 0.5 1.17969 0.5 2V11C0.5 11.8438 1.15625 12.5 2 12.5H8C8.82031 12.5 9.5 11.8438 9.5 11V3.75781C9.5 3.35938 9.33594 2.98438 9.05469 2.70312ZM8.375 11C8.375 11.2109 8.1875 11.375 8 11.375H2C1.78906 11.375 1.625 11.2109 1.625 11V2.02344C1.625 1.8125 1.78906 1.64844 2 1.64844H5.75V3.5C5.75 3.92188 6.07812 4.25 6.5 4.25H8.35156V11H8.375ZM2.75 7.0625C2.75 7.39062 2.98438 7.625 3.3125 7.625H6.6875C6.99219 7.625 7.25 7.39062 7.25 7.0625C7.25 6.75781 6.99219 6.5 6.6875 6.5H3.3125C2.98438 6.5 2.75 6.75781 2.75 7.0625ZM6.6875 8.75H3.3125C2.98438 8.75 2.75 9.00781 2.75 9.3125C2.75 9.64062 2.98438 9.875 3.3125 9.875H6.6875C6.99219 9.875 7.25 9.64062 7.25 9.3125C7.25 9.00781 6.99219 8.75 6.6875 8.75Z" fill="#9CA6BE"/>
</svg>
