<svg width="16" height="16" viewBox="0 0 16 16" fill="none"
  xmlns="http://www.w3.org/2000/svg">
  <path d="M8 2.6875C4.78906 2.6875 2.1875 5.3125 2.1875 8.5C2.1875 11.7109 4.78906 14.3125 8 14.3125C11.1875 14.3125 13.8125 11.7109 13.8125 8.5C13.8125 5.3125 11.1875 2.6875 8 2.6875ZM8 3.8125C10.5781 3.8125 12.6875 5.92188 12.6875 8.5C12.6875 11.1016 10.5781 13.1875 8 13.1875C5.39844 13.1875 3.3125 11.1016 3.3125 8.5C3.3125 5.92188 5.39844 3.8125 8 3.8125ZM11.2812 6.88281L10.7422 6.34375C10.6484 6.22656 10.4609 6.22656 10.3438 6.34375L7.03906 9.625L5.63281 8.21875C5.51562 8.10156 5.35156 8.10156 5.23438 8.21875L4.69531 8.73438C4.60156 8.85156 4.60156 9.03906 4.69531 9.13281L6.82812 11.2891C6.94531 11.4062 7.10938 11.4062 7.22656 11.2891L11.2812 7.28125C11.375 7.16406 11.375 6.97656 11.2812 6.88281Z" fill="#9CA6BE"/>
</svg>
