<?xml version="1.0" encoding="UTF-8"?>
<svg version="1.1" xmlns="http://www.w3.org/2000/svg" width="128" height="128">
<path d="M0 0 C1.92276208 0.98814325 3.71565927 1.49065296 5.82421875 1.9375 C5.82421875 2.5975 5.82421875 3.2575 5.82421875 3.9375 C7.30921875 4.4325 7.30921875 4.4325 8.82421875 4.9375 C12.40317971 11.89659076 12.56988673 20.28459179 11.82421875 27.9375 C10.79562183 31.13550135 9.3897703 33.97615551 7.82421875 36.9375 C7.49421875 37.9275 7.16421875 38.9175 6.82421875 39.9375 C3.29056881 41.39253233 0.58145792 41.98386158 -3.23828125 41.75 C-7.25173509 39.27361359 -8.51698931 36.25981636 -10.58984375 32.09765625 C-12.75504962 27.78324356 -15.26569918 23.69792303 -17.7578125 19.56640625 C-18.99677245 17.26938133 -19.61499474 15.44982355 -20.17578125 12.9375 C-21.59244792 11.35416667 -21.59244792 11.35416667 -23.17578125 9.9375 C-25.17578125 6.9375 -25.17578125 6.9375 -25.05078125 3.4375 C-24.17578125 -0.0625 -24.17578125 -0.0625 -22.42578125 -1.9375 C-14.89790855 -5.70143635 -7.04796666 -4.01896631 0 0 Z M-11.17578125 26.9375 C-10.17578125 28.9375 -10.17578125 28.9375 -10.17578125 28.9375 Z " fill="#FCD60B" transform="translate(50.17578125,56.0625)"/>
<path d="M0 0 C2.35011446 2.67426818 2.40106664 4.81829715 2.32739258 8.30541992 C1.22386903 14.21442485 -2.33400904 19.19058135 -5.4375 24.25 C-6.1280676 25.40975785 -6.81688395 26.57056034 -7.50390625 27.73242188 C-9.37022133 30.86167056 -11.25424177 33.97418443 -13.1875 37.0625 C-13.86393555 38.15216064 -14.54037109 39.24182129 -15.23730469 40.36450195 C-17.1875 43.0625 -17.1875 43.0625 -20.0625 44.1875 C-24.17407585 44.02303697 -26.00865876 42.60557299 -29.1875 40.0625 C-29.785625 39.60875 -30.38375 39.155 -31 38.6875 C-34.9981736 33.21631507 -33.34415233 23.47778579 -33.1875 17.0625 C-33.17074219 16.28390625 -33.15398437 15.5053125 -33.13671875 14.703125 C-33 12.875 -33 12.875 -32.1875 10.0625 C-30.0625 8.5 -30.0625 8.5 -27.1875 7.0625 C-26.02271892 6.06334047 -24.87802185 5.04048135 -23.75 4 C-17.02664877 -1.80194978 -8.40769531 -2.47285156 0 0 Z " fill="#385EBB" transform="translate(100.1875,53.9375)"/>
<path d="M0 0 C1.28390625 -0.00386719 2.5678125 -0.00773437 3.890625 -0.01171875 C5.13585937 -0.01042969 6.38109375 -0.00914063 7.6640625 -0.0078125 C9.34556396 -0.00612061 9.34556396 -0.00612061 11.06103516 -0.00439453 C14.55597629 0.13206626 17.92311048 0.57403269 21.375 1.125 C24.00021401 5.50035668 23.29855699 9.14375302 22.203125 13.890625 C21.375 16.125 21.375 16.125 19.0625 18 C18.175625 18.37125 17.28875 18.7425 16.375 19.125 C15.59125 19.785 14.8075 20.445 14 21.125 C7.4074094 26.14792617 1.50865824 26.98179228 -6.625 26.125 C-14.83192898 24.27736677 -21.99066742 19.07649887 -26.625 12.125 C-26.671875 9.93359375 -26.671875 9.93359375 -26.375 7.5625 C-26.28734375 6.77746094 -26.1996875 5.99242187 -26.109375 5.18359375 C-25.625 3.125 -25.625 3.125 -23.625 1.125 C-15.79305766 -0.17757567 -7.92067956 -0.02400206 0 0 Z M-25.625 9.125 C-24.625 11.125 -24.625 11.125 -24.625 11.125 Z " fill="#FB7D0D" transform="translate(65.625,28.875)"/>
<path d="M0 0 C-3 1 -3 1 -5.6953125 0.0703125 C-9.50138765 -1.16238796 -12.92829054 -1.2244326 -16.875 -1.125 C-17.90753906 -1.11146484 -17.90753906 -1.11146484 -18.9609375 -1.09765625 C-20.64077838 -1.07432513 -22.32043746 -1.03846326 -24 -1 C-22.30190954 4.83977452 -20.11158781 9.92840622 -16.98828125 15.15234375 C-16 17 -16 17 -16 19 C-15.34 19 -14.68 19 -14 19 C-14 19.99 -14 20.98 -14 22 C-13.34 22 -12.68 22 -12 22 C-12.33 23.98 -12.66 25.96 -13 28 C-15.45564273 25.75258428 -17.02416779 23.47444325 -18.625 20.5625 C-19.05039062 19.80066406 -19.47578125 19.03882812 -19.9140625 18.25390625 C-20.92569789 16.15421696 -21.4519003 14.25060406 -22 12 C-23.41666667 10.41666667 -23.41666667 10.41666667 -25 9 C-27 6 -27 6 -26.875 2.5 C-26 -1 -26 -1 -24.25 -2.875 C-15.84443876 -7.07778062 -7.70848191 -4.34478071 0 0 Z " fill="#F7E575" transform="translate(52,57)"/>
<path d="M0 0 C1.28390625 -0.00386719 2.5678125 -0.00773437 3.890625 -0.01171875 C5.13585937 -0.01042969 6.38109375 -0.00914063 7.6640625 -0.0078125 C9.34556396 -0.00612061 9.34556396 -0.00612061 11.06103516 -0.00439453 C14.55597629 0.13206626 17.92311048 0.57403269 21.375 1.125 C22.5 3.375 22.5 3.375 23.375 6.125 C22.5 8.4375 22.5 8.4375 21.375 10.125 C21.375 7.815 21.375 5.505 21.375 3.125 C6.525 3.455 -8.325 3.785 -23.625 4.125 C-23.295 7.425 -22.965 10.725 -22.625 14.125 C-23.615 14.62 -23.615 14.62 -24.625 15.125 C-26.81898856 11.83401716 -26.84003664 11.27667419 -26.375 7.5625 C-26.28734375 6.77746094 -26.1996875 5.99242187 -26.109375 5.18359375 C-25.625 3.125 -25.625 3.125 -23.625 1.125 C-15.79305766 -0.17757567 -7.92067956 -0.02400206 0 0 Z M-25.625 9.125 C-24.625 11.125 -24.625 11.125 -24.625 11.125 Z " fill="#E99646" transform="translate(65.625,28.875)"/>
<path d="M0 0 C3.40651971 3.40651971 3.17812314 7.14649378 3.25 11.8125 C3.22453267 17.01420289 2.47798872 20.45702068 0 25 C-0.33 25 -0.66 25 -1 25 C-1.042721 23.33388095 -1.04063832 21.66617115 -1 20 C-0.67 19.67 -0.34 19.34 0 19 C0.08651611 17.58429877 0.10704904 16.164405 0.09765625 14.74609375 C0.09443359 13.89208984 0.09121094 13.03808594 0.08789062 12.15820312 C0.07951172 11.26037109 0.07113281 10.36253906 0.0625 9.4375 C0.05573242 8.08495117 0.05573242 8.08495117 0.04882812 6.70507812 C0.03700225 4.46998686 0.0205222 2.23502563 0 0 Z " fill="#F6E579" transform="translate(59,66)"/>
<path d="M0 0 C0.99 0.33 1.98 0.66 3 1 C4.1875 4.5625 4.1875 4.5625 5 8 C7.64 8 10.28 8 13 8 C12 10 12 10 10.3125 10.75 C7.01815672 11.10614522 4.98963608 10.39940412 2 9 C0.0625 6.625 0.0625 6.625 -1 4 C-0.6875 1.6875 -0.6875 1.6875 0 0 Z " fill="#F4E884" transform="translate(42,87)"/>
<path d="M0 0 C10.89 0 21.78 0 33 0 C33 0.33 33 0.66 33 1 C22.11 1 11.22 1 0 1 C0 0.67 0 0.34 0 0 Z " fill="#FF1E00" transform="translate(47,27)"/>
<path d="M0 0 C-0.33 0.99 -0.66 1.98 -1 3 C-3.8125 3.6875 -3.8125 3.6875 -7 4 C-8.875 2.5625 -8.875 2.5625 -10 1 C-6.52674819 -0.1577506 -3.63932552 -0.06866652 0 0 Z " fill="#6884B4" transform="translate(84,94)"/>
<path d="M0 0 C1.08667969 0.01804688 2.17335938 0.03609375 3.29296875 0.0546875 C4.54013672 0.08949219 4.54013672 0.08949219 5.8125 0.125 C5.8125 0.455 5.8125 0.785 5.8125 1.125 C0.8625 1.455 -4.0875 1.785 -9.1875 2.125 C-5.66070901 -0.22619399 -4.15870515 -0.08943452 0 0 Z " fill="#5E5EAC" transform="translate(91.1875,50.875)"/>
<path d="M0 0 C0.33 0 0.66 0 1 0 C1 4.62 1 9.24 1 14 C0.67 14 0.34 14 0 14 C0 9.38 0 4.76 0 0 Z " fill="#545A9D" transform="translate(65,71)"/>
<path d="M0 0 C0.33 0 0.66 0 1 0 C1 4.29 1 8.58 1 13 C0.67 13 0.34 13 0 13 C0 8.71 0 4.42 0 0 Z " fill="#E4D16F" transform="translate(63,71)"/>
<path d="M0 0 C3.63 0 7.26 0 11 0 C11 0.33 11 0.66 11 1 C7.37 1 3.74 1 0 1 C0 0.67 0 0.34 0 0 Z " fill="#A65845" transform="translate(59,56)"/>
<path d="M0 0 C0.66 0.33 1.32 0.66 2 1 C0.35 2.32 -1.3 3.64 -3 5 C-1.125 1.125 -1.125 1.125 0 0 Z " fill="#4B4BC1" transform="translate(73,58)"/>
<path d="M0 0 C1.98 0 3.96 0 6 0 C6 0.33 6 0.66 6 1 C4.02 1 2.04 1 0 1 C0 0.67 0 0.34 0 0 Z " fill="#FFFFAA" transform="translate(34,50)"/>
<path d="M0 0 C0.33 0 0.66 0 1 0 C1 1.98 1 3.96 1 6 C0.67 6 0.34 6 0 6 C0 4.02 0 2.04 0 0 Z " fill="#F0942A" transform="translate(38,32)"/>
<path d="M0 0 C0.99 0.33 1.98 0.66 3 1 C1.68 1.33 0.36 1.66 -1 2 C-0.67 1.34 -0.34 0.68 0 0 Z " fill="#B2B233" transform="translate(51,98)"/>
<path d="M0 0 C0.33 0 0.66 0 1 0 C1 1.65 1 3.3 1 5 C0.67 5 0.34 5 0 5 C0 3.35 0 1.7 0 0 Z " fill="#5D6EA9" transform="translate(103,56)"/>
<path d="M0 0 C1.65 0 3.3 0 5 0 C5 0.33 5 0.66 5 1 C3.35 1 1.7 1 0 1 C0 0.67 0 0.34 0 0 Z " fill="#E5E54C" transform="translate(40,51)"/>
<path d="M0 0 C1 4 1 4 1 4 Z " fill="#DFBF3F" transform="translate(24,56)"/>
<path d="M0 0 C4 1 4 1 4 1 Z " fill="#E9E974" transform="translate(30,51)"/>
<path d="" fill="#FFD47F" transform="translate(0,0)"/>
<path d="" fill="#1C71B8" transform="translate(0,0)"/>
<path d="" fill="#FFFF2A" transform="translate(0,0)"/>
<path d="M0 0 C3 1 3 1 3 1 Z " fill="#FF542A" transform="translate(70,55)"/>
<path d="M0 0 C3 1 3 1 3 1 Z " fill="#D47F55" transform="translate(55,55)"/>
<path d="M0 0 C3 1 3 1 3 1 Z " fill="#7171AA" transform="translate(97,52)"/>
<path d="" fill="#E29B7F" transform="translate(0,0)"/>
<path d="" fill="#FF5500" transform="translate(0,0)"/>
<path d="M0 0 C3 1 3 1 3 1 Z " fill="#FF7F55" transform="translate(84,28)"/>
<path d="M0 0 C2 1 2 1 2 1 Z " fill="#FFFFFF" transform="translate(77,99)"/>
<path d="M0 0 C2 1 2 1 2 1 Z " fill="#7FAAD4" transform="translate(79,98)"/>
<path d="M0 0 C2 1 2 1 2 1 Z " fill="#3F3F7F" transform="translate(75,98)"/>
<path d="M0 0 C2 1 2 1 2 1 Z " fill="#BF3F00" transform="translate(48,98)"/>
<path d="" fill="#BFBFBF" transform="translate(0,0)"/>
<path d="" fill="#FFFFBF" transform="translate(0,0)"/>
<path d="" fill="#6A6A94" transform="translate(0,0)"/>
<path d="" fill="#FFFF3F" transform="translate(0,0)"/>
<path d="" fill="#7F7F7F" transform="translate(0,0)"/>
<path d="" fill="#FFFFBF" transform="translate(0,0)"/>
<path d="" fill="#3F3F7F" transform="translate(0,0)"/>
<path d="M0 0 C2 1 2 1 2 1 Z " fill="#3F3F3F" transform="translate(77,55)"/>
<path d="M0 0 C2 1 2 1 2 1 Z " fill="#BF3F3F" transform="translate(73,54)"/>
<path d="M0 0 C2 1 2 1 2 1 Z " fill="#946A3F" transform="translate(53,54)"/>
<path d="M0 0 C2 1 2 1 2 1 Z " fill="#FFBF00" transform="translate(49,54)"/>
<path d="M0 0 C2 1 2 1 2 1 Z " fill="#2A2A55" transform="translate(80,53)"/>
<path d="M0 0 C2 1 2 1 2 1 Z " fill="#FF3F3F" transform="translate(75,53)"/>
<path d="M0 0 C2 1 2 1 2 1 Z " fill="#7F3F3F" transform="translate(51,53)"/>
<path d="M0 0 C2 1 2 1 2 1 Z " fill="#BFBF7F" transform="translate(47,53)"/>
<path d="M0 0 C2 1 2 1 2 1 Z " fill="#BF7F7F" transform="translate(77,52)"/>
<path d="M0 0 C2 1 2 1 2 1 Z " fill="#FFFFBF" transform="translate(45,52)"/>
<path d="M0 0 C2 1 2 1 2 1 Z " fill="#FFFF3F" transform="translate(28,52)"/>
<path d="M0 0 C2 1 2 1 2 1 Z " fill="#FF7F7F" transform="translate(48,51)"/>
<path d="" fill="#BF3F3F" transform="translate(0,0)"/>
<path d="" fill="#BF7F7F" transform="translate(0,0)"/>
<path d="M0 0 C2 1 2 1 2 1 Z " fill="#7F0000" transform="translate(80,28)"/>
<path d="M0 0 C2 1 2 1 2 1 Z " fill="#FF7F3F" transform="translate(42,28)"/>
<path d="" fill="#0000FF" transform="translate(0,0)"/>
<path d="" fill="#7F7FFF" transform="translate(0,0)"/>
<path d="" fill="#FFFF00" transform="translate(0,0)"/>
<path d="" fill="#555555" transform="translate(0,0)"/>
<path d="" fill="#FFFFFF" transform="translate(0,0)"/>
<path d="" fill="#5555AA" transform="translate(0,0)"/>
<path d="" fill="#5555AA" transform="translate(0,0)"/>
<path d="" fill="#FFFF00" transform="translate(0,0)"/>
<path d="" fill="#FFFFFF" transform="translate(0,0)"/>
<path d="" fill="#000055" transform="translate(0,0)"/>
<path d="" fill="#FFFF00" transform="translate(0,0)"/>
<path d="" fill="#5555AA" transform="translate(0,0)"/>
<path d="" fill="#FFFF00" transform="translate(0,0)"/>
<path d="" fill="#000000" transform="translate(0,0)"/>
<path d="" fill="#7F7F7F" transform="translate(0,0)"/>
<path d="" fill="#FFFF7F" transform="translate(0,0)"/>
<path d="" fill="#5555AA" transform="translate(0,0)"/>
<path d="" fill="#00007F" transform="translate(0,0)"/>
<path d="" fill="#FF7F00" transform="translate(0,0)"/>
<path d="" fill="#7F7F00" transform="translate(0,0)"/>
<path d="" fill="#FF7F7F" transform="translate(0,0)"/>
<path d="" fill="#FFFFFF" transform="translate(0,0)"/>
<path d="" fill="#AAAA00" transform="translate(0,0)"/>
<path d="" fill="#FF7F7F" transform="translate(0,0)"/>
<path d="" fill="#FF7F7F" transform="translate(0,0)"/>
<path d="" fill="#FF7F7F" transform="translate(0,0)"/>
<path d="" fill="#FF7F7F" transform="translate(0,0)"/>
<path d="" fill="#FF7F00" transform="translate(0,0)"/>
<path d="" fill="#7F7F7F" transform="translate(0,0)"/>
<path d="" fill="#FF0000" transform="translate(0,0)"/>
<path d="" fill="#FFFF00" transform="translate(0,0)"/>
<path d="" fill="#FF0000" transform="translate(0,0)"/>
</svg>
