<svg width="217" height="59" viewBox="0 0 217 59" fill="none" xmlns="http://www.w3.org/2000/svg">
<path d="M38.7995 43.0994C38.2083 44.1233 36.881 44.4879 35.9903 43.7104C35.4402 43.2304 34.9379 42.6958 34.4913 42.1139C33.6089 40.964 32.9617 39.6515 32.5866 38.2515C32.2114 36.8515 32.1157 35.3912 32.3049 33.9542C32.4941 32.5172 32.9645 31.1315 33.6892 29.8763C34.4139 28.621 35.3788 27.5208 36.5287 26.6385C37.6786 25.7561 38.991 25.1089 40.3911 24.7337C41.7911 24.3586 43.2513 24.2629 44.6883 24.4521C45.4156 24.5478 46.1298 24.7156 46.8205 24.9519C47.9391 25.3346 48.2871 26.6664 47.6959 27.6903L38.7995 43.0994Z" fill="#2D58C0"/>
<path d="M21.9242 13.7683C20.7419 13.7683 19.7625 14.7355 19.9904 15.8956C20.1311 16.612 20.3429 17.3143 20.6236 17.992C21.1783 19.3311 21.9913 20.5479 23.0162 21.5728C24.0411 22.5977 25.2578 23.4107 26.5969 23.9653C27.936 24.52 29.3712 24.8055 30.8207 24.8055C32.2701 24.8055 33.7053 24.52 35.0444 23.9653C36.3835 23.4107 37.6002 22.5977 38.6251 21.5728C39.65 20.5479 40.463 19.3311 41.0177 17.992C41.2984 17.3143 41.5102 16.612 41.6509 15.8956C41.8788 14.7355 40.8994 13.7683 39.7171 13.7683L21.9242 13.7683Z" fill="#FF7800"/>
<path d="M14.0529 27.6143C13.4617 26.5904 13.8097 25.2587 14.9283 24.8759C15.619 24.6396 16.3332 24.4719 17.0605 24.3761C18.4975 24.1869 19.9577 24.2826 21.3577 24.6578C22.7578 25.0329 24.0702 25.6801 25.2201 26.5625C26.37 27.4448 27.3349 28.545 28.0596 29.8003C28.7843 31.0555 29.2547 32.4412 29.4439 33.8782C29.6331 35.3153 29.5374 36.7755 29.1622 38.1755C28.7871 39.5756 28.1399 40.888 27.2575 42.0379C26.8109 42.6199 26.3086 43.1544 25.7586 43.6345C24.8678 44.4119 23.5405 44.0473 22.9493 43.0234L14.0529 27.6143Z" fill="#FFD600"/>
<path d="M60.9826 22.7887C60.9826 22.2766 61.1289 21.9108 61.4215 21.6913C61.7142 21.4535 62.1166 21.3346 62.6287 21.3346C62.9579 21.3346 63.2597 21.3804 63.5341 21.4718C63.8267 21.545 64.0188 21.5999 64.1102 21.6364V25.2305H68.0883C68.6919 25.2305 69.1126 25.3585 69.3504 25.6146C69.6064 25.8523 69.7345 26.209 69.7345 26.6846C69.7345 26.9955 69.6887 27.2881 69.5973 27.5625C69.5058 27.8186 69.4327 28.0015 69.3778 28.1112H64.1102V34.2293C64.1102 34.7048 64.1742 35.0981 64.3023 35.409C64.4303 35.7017 64.604 35.9394 64.8235 36.1223C65.0613 36.3052 65.3265 36.4333 65.6192 36.5064C65.9301 36.5796 66.2502 36.6162 66.5794 36.6162C67.1098 36.6162 67.6037 36.5339 68.0609 36.3693C68.5182 36.2047 68.8474 36.0492 69.0486 35.9029L70.3106 37.988C70.1643 38.0977 69.954 38.2349 69.6796 38.3995C69.4235 38.5641 69.1035 38.7196 68.7194 38.8659C68.3353 39.0122 67.9054 39.1311 67.4299 39.2226C66.9543 39.3323 66.4331 39.3872 65.8661 39.3872C64.2565 39.3872 63.0402 38.9756 62.2172 38.1526C61.3941 37.3112 60.9826 36.2138 60.9826 34.8603V22.7887ZM83.6665 37.988C83.5202 38.0794 83.2916 38.2074 82.9806 38.3721C82.6697 38.5367 82.2765 38.6921 81.8009 38.8385C81.3437 38.9848 80.8041 39.1128 80.1822 39.2226C79.5787 39.3323 78.9111 39.3872 78.1794 39.3872C77.1552 39.3872 76.1949 39.2317 75.2987 38.9208C74.4208 38.6098 73.6435 38.1526 72.9667 37.549C72.3083 36.9271 71.787 36.1772 71.4029 35.2993C71.0188 34.4031 70.8267 33.3788 70.8267 32.2265C70.8267 31.1291 71.0096 30.1323 71.3755 29.2361C71.7596 28.3215 72.2808 27.5442 72.9393 26.904C73.616 26.2456 74.4025 25.7426 75.2987 25.3951C76.2132 25.0293 77.2101 24.8464 78.2892 24.8464C79.2403 24.8464 80.0816 24.9744 80.8132 25.2305C81.5449 25.4683 82.1576 25.7975 82.6514 26.2182C83.1635 26.6205 83.5476 27.0961 83.8037 27.6448C84.0598 28.1935 84.1878 28.7788 84.1878 29.4007C84.1878 30.0408 84.0689 30.6261 83.8311 31.1565C83.5934 31.6687 83.1727 32.1168 82.5691 32.5009C81.9655 32.8667 81.1516 33.1593 80.1274 33.3788C79.1031 33.58 77.8045 33.6806 76.2315 33.6806C75.8657 33.6806 75.5182 33.6806 75.189 33.6806C74.878 33.6623 74.5397 33.644 74.1739 33.6257C74.3202 34.5585 74.7683 35.3176 75.5182 35.9029C76.2864 36.4699 77.3747 36.7534 78.783 36.7534C79.2586 36.7534 79.6975 36.7168 80.0999 36.6436C80.5023 36.5705 80.859 36.479 81.1699 36.3693C81.4991 36.2595 81.7735 36.1498 81.993 36.04C82.2307 35.9303 82.4045 35.848 82.5142 35.7931L83.6665 37.988ZM74.0367 31.4858C74.4574 31.504 74.8598 31.5132 75.2439 31.5132C75.6279 31.5132 76.012 31.5132 76.3961 31.5132C77.4021 31.5132 78.216 31.4492 78.8379 31.3211C79.4598 31.1931 79.9445 31.0285 80.292 30.8273C80.6395 30.6261 80.8681 30.3975 80.9779 30.1414C81.0876 29.8854 81.1425 29.6201 81.1425 29.3458C81.1425 28.6508 80.859 28.1295 80.292 27.782C79.7433 27.4345 79.0574 27.2607 78.2343 27.2607C77.5576 27.2607 76.9631 27.3796 76.451 27.6174C75.9389 27.8551 75.5091 28.1752 75.1615 28.5776C74.814 28.9617 74.5397 29.4098 74.3385 29.9219C74.1556 30.4341 74.055 30.9553 74.0367 31.4858ZM86.8705 35.5736C86.9985 35.6651 87.2271 35.784 87.5564 35.9303C87.8856 36.0766 88.288 36.2321 88.7635 36.3967C89.2574 36.543 89.8152 36.6711 90.4371 36.7808C91.059 36.8905 91.7357 36.9454 92.4673 36.9454C93.4184 36.9454 94.1957 36.8265 94.7993 36.5887C95.4029 36.3327 95.7047 35.9029 95.7047 35.2993C95.7047 34.7872 95.5126 34.4031 95.1285 34.147C94.7444 33.8726 94.0586 33.6806 93.0709 33.5709L90.9309 33.3239C90.1993 33.2508 89.5226 33.1227 88.9007 32.9398C88.2971 32.7386 87.7758 32.4734 87.3369 32.1442C86.8979 31.815 86.5504 31.4126 86.2943 30.937C86.0566 30.4432 85.9377 29.8579 85.9377 29.1812C85.9377 28.5959 86.0474 28.0472 86.2669 27.5351C86.5047 27.0046 86.8705 26.5382 87.3643 26.1358C87.8581 25.7335 88.4983 25.4225 89.2848 25.203C90.0896 24.9653 91.059 24.8464 92.1929 24.8464C94.0951 24.8464 95.5675 25.0567 96.6101 25.4774C97.6709 25.8981 98.2013 26.4468 98.2013 27.1235C98.2013 27.343 98.1556 27.5351 98.0641 27.6997C97.991 27.8643 97.8995 28.0106 97.7898 28.1386C97.6983 28.2667 97.5977 28.3764 97.488 28.4679C97.3782 28.541 97.2959 28.5867 97.2411 28.605C97.1679 28.5319 97.0033 28.4221 96.7472 28.2758C96.5095 28.1112 96.1802 27.9557 95.7596 27.8094C95.3389 27.6448 94.8359 27.5076 94.2506 27.3979C93.6653 27.2698 92.9886 27.2058 92.2204 27.2058C90.0987 27.2058 89.0379 27.7637 89.0379 28.8794C89.0379 29.3549 89.2391 29.7207 89.6415 29.9768C90.0438 30.2146 90.62 30.3792 91.3699 30.4706L94.1683 30.8273C95.6864 31.0285 96.8661 31.4492 97.7075 32.0893C98.5488 32.7112 98.9695 33.6349 98.9695 34.8603C98.9695 36.2321 98.4208 37.3295 97.3234 38.1526C96.2442 38.9756 94.6804 39.3872 92.6319 39.3872C91.6442 39.3872 90.748 39.314 89.9432 39.1677C89.1385 39.0214 88.4343 38.8567 87.8307 38.6738C87.2454 38.4726 86.7699 38.2806 86.4041 38.0977C86.0383 37.9148 85.8005 37.7776 85.6908 37.6862L86.8705 35.5736ZM101.653 22.7887C101.653 22.2766 101.8 21.9108 102.092 21.6913C102.385 21.4535 102.787 21.3346 103.3 21.3346C103.629 21.3346 103.931 21.3804 104.205 21.4718C104.498 21.545 104.69 21.5999 104.781 21.6364V25.2305H108.759C109.363 25.2305 109.783 25.3585 110.021 25.6146C110.277 25.8523 110.405 26.209 110.405 26.6846C110.405 26.9955 110.36 27.2881 110.268 27.5625C110.177 27.8186 110.104 28.0015 110.049 28.1112H104.781V34.2293C104.781 34.7048 104.845 35.0981 104.973 35.409C105.101 35.7017 105.275 35.9394 105.494 36.1223C105.732 36.3052 105.997 36.4333 106.29 36.5064C106.601 36.5796 106.921 36.6162 107.25 36.6162C107.781 36.6162 108.275 36.5339 108.732 36.3693C109.189 36.2047 109.518 36.0492 109.719 35.9029L110.982 37.988C110.835 38.0977 110.625 38.2349 110.35 38.3995C110.094 38.5641 109.774 38.7196 109.39 38.8659C109.006 39.0122 108.576 39.1311 108.101 39.2226C107.625 39.3323 107.104 39.3872 106.537 39.3872C104.927 39.3872 103.711 38.9756 102.888 38.1526C102.065 37.3112 101.653 36.2138 101.653 34.8603V22.7887ZM119.606 24.8464C120.667 24.8464 121.654 25.0293 122.569 25.3951C123.501 25.7609 124.306 26.273 124.983 26.9315C125.66 27.5716 126.19 28.3398 126.574 29.2361C126.958 30.114 127.15 31.0742 127.15 32.1168C127.15 33.141 126.958 34.1013 126.574 34.9975C126.19 35.8754 125.66 36.6436 124.983 37.3021C124.306 37.9422 123.501 38.4544 122.569 38.8385C121.654 39.2043 120.667 39.3872 119.606 39.3872C118.545 39.3872 117.548 39.2043 116.615 38.8385C115.701 38.4544 114.905 37.9422 114.228 37.3021C113.552 36.6436 113.021 35.8754 112.637 34.9975C112.253 34.1013 112.061 33.141 112.061 32.1168C112.061 31.0742 112.253 30.114 112.637 29.2361C113.021 28.3398 113.552 27.5716 114.228 26.9315C114.905 26.273 115.701 25.7609 116.615 25.3951C117.548 25.0293 118.545 24.8464 119.606 24.8464ZM119.606 36.6162C120.228 36.6162 120.804 36.5064 121.334 36.287C121.865 36.0492 122.313 35.7291 122.678 35.3267C123.063 34.906 123.355 34.4305 123.556 33.9001C123.776 33.3514 123.886 32.7569 123.886 32.1168C123.886 31.4766 123.776 30.8822 123.556 30.3335C123.355 29.7665 123.063 29.2818 122.678 28.8794C122.313 28.477 121.865 28.1661 121.334 27.9466C120.804 27.7088 120.228 27.5899 119.606 27.5899C118.966 27.5899 118.38 27.7088 117.85 27.9466C117.338 28.1661 116.89 28.477 116.505 28.8794C116.14 29.2818 115.847 29.7665 115.628 30.3335C115.426 30.8822 115.326 31.4766 115.326 32.1168C115.326 32.7569 115.426 33.3514 115.628 33.9001C115.847 34.4305 116.14 34.906 116.505 35.3267C116.89 35.7291 117.338 36.0492 117.85 36.287C118.38 36.5064 118.966 36.6162 119.606 36.6162ZM129.784 30.1414C129.784 28.4587 130.296 27.1601 131.32 26.2456C132.363 25.3128 133.798 24.8464 135.627 24.8464C136.78 24.8464 137.712 25.011 138.426 25.3402C139.157 25.6512 139.523 26.1358 139.523 26.7943C139.523 27.1052 139.432 27.407 139.249 27.6997C139.084 27.9923 138.947 28.1752 138.837 28.2484C138.526 28.1021 138.142 27.9649 137.685 27.8368C137.228 27.7088 136.706 27.6448 136.121 27.6448C133.981 27.6448 132.911 28.7788 132.911 31.0468V39.0031H129.784V30.1414ZM141.334 26.6846C141.334 26.1724 141.481 25.8066 141.773 25.5871C142.066 25.3494 142.477 25.2305 143.008 25.2305C143.337 25.2305 143.639 25.2762 143.913 25.3677C144.188 25.4408 144.371 25.4957 144.462 25.5323V39.0031H141.334V26.6846ZM142.898 19.0575C143.429 19.0575 143.877 19.2404 144.242 19.6062C144.608 19.972 144.791 20.4201 144.791 20.9505C144.791 21.481 144.608 21.9291 144.242 22.2949C143.877 22.6607 143.429 22.8436 142.898 22.8436C142.368 22.8436 141.92 22.6607 141.554 22.2949C141.188 21.9291 141.005 21.481 141.005 20.9505C141.005 20.4201 141.188 19.972 141.554 19.6062C141.92 19.2404 142.368 19.0575 142.898 19.0575ZM147.815 26.6846C147.815 26.1724 147.961 25.8066 148.254 25.5871C148.546 25.3494 148.958 25.2305 149.488 25.2305C149.818 25.2305 150.119 25.2762 150.394 25.3677C150.668 25.4408 150.851 25.4957 150.943 25.5323V32.7478C150.943 33.9915 151.235 34.9426 151.82 35.6011C152.406 36.2412 153.302 36.5613 154.509 36.5613C155.716 36.5613 156.612 36.2412 157.198 35.6011C157.783 34.9426 158.076 33.9915 158.076 32.7478V26.6846C158.076 26.1724 158.222 25.8066 158.515 25.5871C158.807 25.3494 159.21 25.2305 159.722 25.2305C160.069 25.2305 160.38 25.2762 160.655 25.3677C160.929 25.4408 161.112 25.4957 161.203 25.5323V33.4337C161.203 34.3665 161.039 35.2078 160.71 35.9577C160.399 36.6893 159.941 37.3112 159.338 37.8233C158.752 38.3355 158.048 38.7287 157.225 39.0031C156.402 39.2591 155.497 39.3872 154.509 39.3872C153.521 39.3872 152.616 39.2591 151.793 39.0031C150.97 38.7287 150.266 38.3355 149.68 37.8233C149.095 37.3112 148.638 36.6893 148.309 35.9577C147.979 35.2078 147.815 34.3665 147.815 33.4337V26.6846ZM164.426 30.1414C164.426 29.2635 164.582 28.4953 164.893 27.8368C165.204 27.1784 165.624 26.6297 166.155 26.1907C166.703 25.7518 167.343 25.4225 168.075 25.203C168.807 24.9653 169.602 24.8464 170.462 24.8464C171.596 24.8464 172.611 25.0567 173.507 25.4774C174.404 25.8981 175.117 26.5199 175.647 27.343C176.178 26.5199 176.882 25.8981 177.76 25.4774C178.638 25.0567 179.635 24.8464 180.75 24.8464C181.592 24.8464 182.378 24.9561 183.11 25.1756C183.841 25.3951 184.472 25.7243 185.003 26.1633C185.533 26.6022 185.954 27.151 186.265 27.8094C186.576 28.4679 186.731 29.2361 186.731 30.114V39.0031H183.604V31.184C183.604 29.9219 183.32 29.0257 182.753 28.4953C182.186 27.9466 181.418 27.6722 180.448 27.6722C179.516 27.6722 178.729 27.974 178.089 28.5776C177.467 29.1812 177.156 30.1597 177.156 31.5132V39.0031H174.029V31.5132C174.029 30.1597 173.708 29.1812 173.068 28.5776C172.446 27.974 171.669 27.6722 170.736 27.6722C169.785 27.6722 169.017 27.9466 168.432 28.4953C167.846 29.044 167.554 29.9494 167.554 31.2114V39.0031H164.426V30.1414ZM189 36.287C189.604 35.7748 190.308 35.153 191.113 34.4213C191.936 33.6714 192.768 32.9124 193.61 32.1442C194.451 31.376 195.256 30.6353 196.024 29.9219C196.792 29.1903 197.423 28.5776 197.917 28.0838H190.647C190.043 28.0838 189.613 27.9649 189.357 27.7271C189.119 27.4893 189 27.1418 189 26.6846C189 26.3736 189.046 26.081 189.138 25.8066C189.229 25.5323 189.302 25.3402 189.357 25.2305H200.523C201.054 25.2305 201.474 25.3585 201.785 25.6146C202.096 25.8523 202.252 26.2273 202.252 26.7394C202.252 27.0869 202.169 27.4162 202.005 27.7271C201.84 28.0197 201.529 28.3947 201.072 28.852C200.779 29.1446 200.414 29.5013 199.975 29.9219C199.554 30.3243 199.097 30.7541 198.603 31.2114C198.109 31.6687 197.597 32.1442 197.066 32.638C196.536 33.1136 196.024 33.58 195.53 34.0373C195.036 34.4762 194.57 34.8878 194.131 35.2718C193.692 35.6559 193.317 35.9852 193.006 36.2595H202.279V39.0031H189V36.287Z" fill="white"/>
</svg>
